<?xml version="1.0" encoding="utf-8"?>
<!-- Generator: Adobe Illustrator 30.1.0, SVG Export Plug-In . SVG Version: 9.03 Build 0)  -->
<svg version="1.1" id="Layer_1" xmlns="http://www.w3.org/2000/svg" xmlns:xlink="http://www.w3.org/1999/xlink" x="0px" y="0px"
	 viewBox="130 390 820 270" style="enable-background:new 0 0 1080 1080;" xml:space="preserve">
<g>
	<g>
		<g>
			<path style="fill:#793315;" d="M828.62,551.947v-36.813c0-10.613,0.198-13.265,8.7-13.265h3.956
				c13.053,0,16.016,4.643,16.016,24.707c0,20.23-13.132,24.005-21.555,25.371c-1.077,0.175-4.352,0.382-4.352,0.382
				c0.004,0.246,0.008,0.11,0.008,0.357c0,0.327-0.016,0.398-0.021,0.726c-0.001,0.09,0.018-0.479-0.01,0.016
				c0,0,4.038,0.275,5.363,0.51c9.885,1.75,24.72,6.466,24.72,30.345c0,24.93-6.713,29.41-18.664,29.657
				c0.05,0.666,0.099,1.333,0.147,2c29.747-0.16,48.579-8.502,48.579-31.657c0-27.03-30.062-31.009-46.676-31.341v-0.332
				c19.186-0.166,41.533-4.145,41.533-26.034c0-24.873-28.436-28.316-45.441-28.316c0,0-21.698-0.217-28.385,1.618
				c-3.819,1.048-6.779,3.505-8.925,6.492c-1.794,2.498-2.62,4.834-3.243,7.713c-0.119,0.549-0.231,2.278-0.231,2.875
				c0,20.479,0,81.917,0,81.917c0,10.613,0,14.924-10.876,15.587v1.493h39.532c0-3.908-0.1-6.076-0.1-11.288
				c0-0.444-0.058-0.902-0.058-1.633c-0.012-0.74-0.018-1.502-0.018-2.335v-46.762"/>
			<path style="fill:#793315;" d="M787.125,614.451c-22.544,0-24.281-19.66-24.281-54.613c0-34.953,1.978-54.193,24.325-54.193
				h3.957c0.424,0,0.785,0.023,1.167,0.039c0.014-0.022,0.026-0.043,0.04-0.065c0.418-0.646,0.903-1.263,1.347-1.898h-6.313
				c-32.827,0-56.163,20.202-56.163,56.117s23.336,56.117,56.361,56.117h4.411c0.243-0.664,0.957-1.021,1.211-1.681
				c-0.504,0.032-1.724,0.177-2.303,0.177H787.125z"/>
		</g>
		<g>
			<path style="fill:#793315;" d="M812.562,470.471c-71.261,0-129.029,38.787-129.029,86.634s57.768,86.633,129.029,86.633
				s129.029-38.787,129.029-86.633S883.823,470.471,812.562,470.471z M812.562,641.372c-64.188,0-116.223-37.728-116.223-84.267
				c0-46.54,52.035-84.267,116.223-84.267s116.223,37.728,116.223,84.267C928.786,603.644,876.751,641.372,812.562,641.372z"/>
		</g>
	</g>
	<g>
		<g>
			<g>
				<path style="fill:#793315;" d="M138.409,629.136c4.91-0.323,4.91-2.344,4.91-7.516v-39.924c0-5.172,0-7.194-4.91-7.516v-0.808
					H161.8c14.82,0,25.354,10.183,25.354,28.287s-10.535,28.287-25.444,28.287h-23.302V629.136z M161.8,628.974
					c10.177,0,11.071-9.698,11.071-27.317s-0.893-27.317-10.981-27.317h-1.786c-3.838,0-3.928,1.293-3.928,6.465v41.703
					c0,4.687,0,6.465,3.928,6.465H161.8z"/>
				<path style="fill:#793315;" d="M192.154,601.657c0-18.346,12.765-29.095,24.461-29.095c11.606,0,24.463,10.749,24.463,29.095
					s-12.857,29.095-24.463,29.095C204.92,630.753,192.154,620.004,192.154,601.657z M226.793,601.657
					c0-18.508-1.606-28.125-10.177-28.125c-8.57,0-10.177,9.617-10.177,28.125c0,18.993,1.608,28.125,10.177,28.125
					C225.187,629.783,226.793,620.65,226.793,601.657z"/>
				<path style="fill:#793315;" d="M245.096,629.136c4.91-0.323,4.91-2.344,4.91-7.516v-39.924c0-5.172,0-7.194-4.91-7.516v-0.808
					h24.283v0.808c-6.516,0.322-6.516,2.344-6.516,7.516v40.814c0,4.687,0,6.465,3.928,6.465h2.945
					c9.196,0,15.178-8.243,15.803-24.569h0.891l-0.268,25.539h-41.066V629.136z"/>
				<path style="fill:#793315;" d="M290.806,601.657c0-18.023,13.927-29.095,25.89-29.095c4.553,0,7.5,2.101,9.642,3.88
					c1.876,1.373,3.037,2.263,3.93,2.263c1.427,0,2.141-0.889,2.231-6.143h0.893l0.268,24.085h-0.893
					c-0.536-9.617-5.893-23.114-15.802-23.114c-9.999,0-11.874,12.769-11.874,28.125c0,15.517,0.804,27.802,11.696,27.802
					c10.713,0,15.445-10.992,16.159-21.578h0.893c-0.447,9.698-4.821,22.872-18.392,22.872
					C303.482,630.753,290.806,620.084,290.806,601.657z"/>
				<path style="fill:#793315;" d="M380.977,605.941l-0.357,24.004h-41.692v-0.809c4.91-0.323,4.91-2.344,4.91-7.516v-39.924
					c0-5.172,0-7.194-4.91-7.516v-0.808h40.978l0.447,20.852h-0.891c-0.804-13.82-7.232-19.801-14.286-19.801h-4.553
					c-3.838,0-3.928,1.213-3.928,6.385v18.831h3.392c8.659,0,10.535-2.505,10.981-12.285h0.893v25.621h-0.893
					c-0.447-9.861-2.322-12.366-10.981-12.366h-3.392v21.903c0,4.687,0,6.465,3.928,6.465h3.749c9.286,0,15.179-7.516,15.713-23.033
					H380.977z"/>
			</g>
			<g>
				<path style="fill:#793315;" d="M447.856,614.508c0,11.396-8.661,15.437-22.322,15.437h-23.836v-0.728
					c4.91-0.323,4.91-2.424,4.91-7.597v-39.924c0-5.172,0-7.275-4.91-7.597v-0.728h23.213c7.677,0,20.623,0.889,20.623,13.012
					c0,10.668-10.088,12.608-18.749,12.689v0.162C434.285,599.395,447.856,601.334,447.856,614.508z M419.465,580.806v17.942h3.213
					c8.393,0,9.731-2.505,9.731-12.365c0-9.779-1.338-12.042-7.23-12.042h-1.786C419.554,574.341,419.465,575.634,419.465,580.806z
					 M434.285,614.508c0-11.638-1.965-14.79-11.16-14.79h-3.66v22.791c0,4.687,0,6.465,3.928,6.465h1.965
					C431.072,628.974,434.285,627.035,434.285,614.508z"/>
				<path style="fill:#793315;" d="M494.101,605.941l-0.357,24.004h-41.692v-0.809c4.91-0.323,4.91-2.344,4.91-7.516v-39.924
					c0-5.172,0-7.194-4.91-7.516v-0.808h40.978l0.447,20.852h-0.891c-0.804-13.82-7.232-19.801-14.286-19.801h-4.553
					c-3.838,0-3.928,1.213-3.928,6.385v18.831h3.392c8.659,0,10.535-2.505,10.981-12.285h0.893v25.621h-0.893
					c-0.447-9.861-2.322-12.366-10.981-12.366h-3.392v21.903c0,4.687,0,6.465,3.928,6.465h3.749c9.286,0,15.179-7.516,15.713-23.033
					H494.101z"/>
				<path style="fill:#793315;" d="M500.083,629.136c4.91-0.323,4.91-2.344,4.91-7.516v-39.924c0-5.172,0-7.194-4.91-7.516v-0.808
					h24.283v0.808c-6.516,0.322-6.516,2.344-6.516,7.516v40.814c0,4.687,0,6.465,3.928,6.465h2.945
					c9.197,0,15.178-8.243,15.803-24.569h0.891l-0.268,25.539h-41.066V629.136z"/>
				<path style="fill:#793315;" d="M545.258,629.136c4.91-0.323,4.91-2.344,4.91-7.516v-39.924c0-5.172,0-7.194-4.91-7.516v-0.808
					h24.283v0.808c-6.516,0.322-6.516,2.344-6.516,7.516v40.814c0,4.687,0,6.465,3.928,6.465h2.945
					c9.197,0,15.179-8.243,15.804-24.569h0.891l-0.268,25.539h-41.067V629.136z"/>
				<path style="fill:#793315;" d="M591.058,601.657c0-18.346,12.765-29.095,24.461-29.095c11.606,0,24.463,10.749,24.463,29.095
					s-12.857,29.095-24.463,29.095C603.824,630.753,591.058,620.004,591.058,601.657z M625.697,601.657
					c0-18.508-1.606-28.125-10.177-28.125c-8.57,0-10.177,9.617-10.177,28.125c0,18.993,1.608,28.125,10.177,28.125
					C624.092,629.783,625.697,620.65,625.697,601.657z"/>
			</g>
		</g>
		<g>
			<path style="fill-rule:evenodd;clip-rule:evenodd;fill:#793315;" d="M251.479,446.976c-3.743,0-4.678-1.339-4.678-3.811v-6.903
				l2.152,0.31v6.181c0,1.745,0.281,3.091,2.059,3.091c1.497,0,2.246-1.236,2.246-2.988v-6.284l2.152-0.31v5.049
				c0,1.744,0.748,4.532,2.62,4.532c1.684,0,1.965-1.236,1.965-2.988v-6.284l2.152-0.31v6.903c0,2.466-1.497,3.811-3.463,3.811
				c-1.965,0-2.9-0.824-3.836-2.472C254.473,446.255,253.163,446.976,251.479,446.976 M307.536,533.11h4.772
				c7.955,0,13.569-4.739,13.569-13.392v-32.552l-12.352,2.574c4.117,1.443,4.211,2.163,4.211,4.635v25.033
				c0,5.975-2.059,9.787-7.018,9.89h-3.182h-1.684h-3.556c-6.55,0-10.48-9.374-10.48-15.864v-26.269l-12.352,2.574
				c3.743,1.443,4.118,1.854,4.118,4.121v25.857c0,5.975-2.059,9.58-7.018,9.58h-2.527h-1.779h-1.871
				c-6.451,0-10.574-9.374-10.574-15.864v-59.742l-12.258,2.576c3.743,1.442,4.117,1.858,4.117,4.121v59.329
				c0,5.97-2.062,9.58-7.018,9.58h-3.555h-1.684h-67.225c0.468-4.429,0.656-9.89,0.656-16.482v-25.24h-7.112
				c-15.904,0-27.324,11.539-27.324,29.464c0,9.89,8.049,16.07,14.317,16.07h10.762c-3.463,13.084-12.071,16.379-18.808,18.028
				l-2.246,0.411c3.368,0.309,6.363,0.516,7.673,0.516c7.58,0,17.311-2.472,21.241-18.955h68.067h1.684h5.24
				c5.895,0,11.603-1.854,13.849-8.035c2.9,4.841,7.017,8.035,11.79,8.035h0.28h1.779h4.211c5.8,0,11.602-1.854,13.847-8.035
				c2.901,4.841,6.926,8.035,11.698,8.035h2.058H307.536z M314.74,542.382c-2.619,0-4.865,2.267-4.865,5.357
				c0,2.987,2.246,5.254,4.865,5.254c2.621,0,4.867-2.268,4.867-5.254C319.607,544.648,317.361,542.382,314.74,542.382z
				 M274.599,542.588c-2.901,0-4.773,2.267-4.773,5.151c0,2.884,1.871,5.254,4.773,5.254c2.713,0,4.772-2.371,4.772-5.254
				C279.371,544.854,277.311,542.588,274.599,542.588z M288.073,542.588c-2.807,0-4.772,2.267-4.772,5.151
				c0,2.884,1.965,5.254,4.772,5.254c2.807,0,4.773-2.371,4.773-5.254C292.845,544.854,290.88,542.588,288.073,542.588z
				 M164.61,526.106c0,1.331-0.094,2.163-0.187,3.192h-9.639c-5.33,0-8.235-6.799-8.235-12.876c0-15.349,8.796-25.651,17.031-25.651
				h1.029V526.106z"/>
			<path style="fill-rule:evenodd;clip-rule:evenodd;fill:#793315;" d="M625.947,486.459c-3.744,0-6.551,2.575-8.516,5.048
				c-4.024,5.049-5.709,5.666-8.047,5.769l1.684,8.035c5.52-8.755,10.386-15.554,13.756-15.554c4.772,0,5.987,8.345,5.987,26.062
				v12.671h-27.229l2.901,3.812h33.5v-2.678c0-17.514-2.34-42.958-13.85-43.164H625.947z M565.123,550.741
				c3.369,0.309,6.363,0.516,7.673,0.516c10.012,0,22.739-4.327,22.739-39.249v-25.24h-7.112c-15.907,0-27.325,11.538-27.325,29.464
				c0,9.89,8.049,15.865,14.317,16.07h0.469c6.83,0,9.637-3.914,11.602-7.314c-1.777,19.264-12.257,23.385-20.118,25.342
				L565.123,550.741z M587.301,513.655c0,8.035-4.305,15.452-9.92,15.452h0.094c-5.334-0.206-8.235-7.417-8.235-13.494
				c0-15.349,8.796-25.651,17.031-25.651h1.03V513.655z M534.806,532.301h2.339c7.954,0,13.662-4.739,13.662-13.393V453.09
				l-12.352,2.575c4.117,1.443,4.117,2.168,4.117,4.534V518.6c0,6.074-2.156,9.889-7.391,9.889h-0.375h-1.684h-3.649
				c-6.456,0-10.386-9.373-10.386-15.864v-26.268l-12.446,2.574c3.838,1.443,4.21,1.854,4.21,4.121v25.856
				c0,5.976-2.152,9.581-7.018,9.581h-6.924v0.104h-1.217c-5.333,0-9.17-6.181-10.293-12.157v-29.977l-12.165,2.575
				c4.024,1.442,4.024,2.164,4.024,4.532v25.446c0,6.077-2.152,9.889-7.393,9.889c-6.456,0-10.106-9.684-10.106-16.276v-22.458
				l-12.446,2.575c4.119,1.545,4.211,1.958,4.211,4.122v22.148c0,6.077-2.152,9.889-7.486,9.889c-5.801,0-9.264-7.931-9.919-14.216
				v-20.809l-12.351,2.472c4.21,1.545,4.21,1.957,4.21,4.224V518.6c0,6.079-2.151,9.889-7.299,9.889h-0.467h-1.684h-2.34
				c-7.112-0.514-9.45-10.199-12.257-17.203c-1.966-5.254-4.211-10.713-5.334-13.702c-3.838-10.095-7.86-11.331-13.288-11.331
				h-3.276c-3.742,0-5.333,2.472-5.333,5.871c0,7.83,7.673,21.839,12.445,36.365h-24.516c-4.023-0.308-6.268-3.192-6.268-8.653
				v-26.888l-14.972,0.722v3.503c5.333,0,6.737,0.824,6.737,3.296v18.955c0,9.787,5.989,12.877,13.942,12.877h34.716
				c-7.486-20.192-10.106-27.3-11.51-30.802c-0.655-1.545-0.936-2.472-1.403-3.812c-0.375-1.132-1.03-2.885-1.03-4.635
				c0-1.648,0.561-3.09,2.059-3.09c2.714,0,4.399,1.958,8.235,11.229c0.468,1.029,0.937,2.265,1.591,3.811
				c1.684,4.327,4.399,10.714,7.206,18.131c2.433,6.284,7.017,9.169,14.036,9.169h0.562h1.684h2.339
				c5.895,0,10.48-2.37,12.633-7.005c3.181,4.738,6.737,7.108,13.006,7.108c5.803,0,11.697-3.811,12.913-8.756
				c1.966,4.945,6.645,8.756,12.727,8.756c6.456,0,11.322-3.193,13.006-8.86c2.246,5.357,7.58,8.86,12.352,8.86h1.123v-0.103h7.113
				c5.895,0,11.602-1.854,13.847-8.035c2.996,4.841,7.018,8.035,11.791,8.035h2.059H534.806z M506.078,465.134
				c-2.9,0-4.773,2.267-4.773,5.254c0,2.885,1.873,5.253,4.773,5.253c2.715,0,4.772-2.368,4.772-5.253
				C510.85,467.4,508.793,465.134,506.078,465.134z M519.553,465.134c-2.807,0-4.773,2.267-4.773,5.254
				c0,2.885,1.966,5.253,4.773,5.253s4.772-2.368,4.772-5.253C524.324,467.4,522.36,465.134,519.553,465.134z M449.278,467.71
				c-2.619,0-4.304,2.06-4.304,4.738c0,2.679,1.684,4.842,4.304,4.842c2.62,0,4.399-2.163,4.399-4.842
				C453.677,469.77,451.899,467.71,449.278,467.71z M463.314,467.71c-2.527,0-4.491,2.06-4.491,4.738
				c0,2.679,1.965,4.842,4.491,4.842c2.433,0,4.305-2.163,4.305-4.842C467.619,469.77,465.748,467.71,463.314,467.71z
				 M456.204,456.893c-2.433,0-4.118,1.956-4.118,4.429c0,2.473,1.684,4.431,4.118,4.431c2.338,0,3.93-1.957,3.93-4.431
				C460.133,458.849,458.542,456.893,456.204,456.893z M367.308,541.676c-2.901,0-4.772,2.266-4.772,5.254
				c0,2.781,1.871,5.15,4.772,5.15c2.714,0,4.678-2.37,4.678-5.15C371.986,543.941,370.021,541.676,367.308,541.676z
				 M380.782,541.676c-2.807,0-4.772,2.266-4.772,5.254c0,2.781,1.965,5.15,4.772,5.15c2.714,0,4.772-2.37,4.772-5.15
				C385.555,543.941,383.496,541.676,380.782,541.676z"/>
		</g>
	</g>
</g>
<g>
</g>
<g>
</g>
<g>
</g>
<g>
</g>
<g>
</g>
<g>
</g>
<g>
</g>
<g>
</g>
<g>
</g>
<g>
</g>
<g>
</g>
<g>
</g>
<g>
</g>
<g>
</g>
<g>
</g>
</svg>
