<svg id="Layer_1" data-name="Layer 1" xmlns="http://www.w3.org/2000/svg" xmlns:xlink="http://www.w3.org/1999/xlink" viewBox="0 0 113 36">
	<defs>
		<style>.cls-1{fill:none;}.cls-2{clip-path:url(#clip-path);}.cls-3{clip-path:url(#clip-path-2);}.cls-4{fill:#72277d;}.cls-5{fill:#fecc3f;}.cls-6{fill:#74277d;}</style>
		<clipPath id="clip-path">
			<rect class="cls-1" x="-650.54" y="-834.71" width="1920" height="1080"/>
		</clipPath>
		<clipPath id="clip-path-2">
			<rect class="cls-1" x="-635.94" y="-807.89" width="1920" height="1080"/>
		</clipPath>
	</defs>
	<path class="cls-4" d="M27.93,3.41V17.12a1.46,1.46,0,0,1-.58,1.22l-3,1.9a1.43,1.43,0,0,0-.58,1.22V32.73a1.23,1.23,0,0,1-1,1.36h-.12a1.24,1.24,0,0,1-1-1.36V21.52a1.49,1.49,0,0,0-.54-1.2l-3-2.11A1.47,1.47,0,0,1,17.5,17V3.41a1.23,1.23,0,0,1,1-1.36h0a1.24,1.24,0,0,1,1,1.36V15c0,.72,2,.76,2,0V3.41a1.23,1.23,0,0,1,1-1.36h.07a1.24,1.24,0,0,1,1,1.36V15c0,.85,2.05.89,2.07,0V3.41a1.55,1.55,0,0,1,.3-1,.93.93,0,0,1,.73-.4,1.24,1.24,0,0,1,1,1.36"/>
	<path class="cls-4" d="M22.77,34.39h-.12a1.52,1.52,0,0,1-1.34-1.66l0-11.21a1.19,1.19,0,0,0-.42-.95l-3-2.11A1.76,1.76,0,0,1,17.19,17V3.41a1.54,1.54,0,0,1,1.35-1.67h0A1.53,1.53,0,0,1,19.9,3.41V15c0,.09.29.25.73.25h0c.4,0,.69-.14.7-.26V3.41a1.53,1.53,0,0,1,1.34-1.67h.07a1.53,1.53,0,0,1,1.34,1.67V15c0,.22.41.36.78.35s.68-.1.68-.35V3.41a1.88,1.88,0,0,1,.37-1.15,1.23,1.23,0,0,1,1-.52,1.53,1.53,0,0,1,1.34,1.67V17.12a1.74,1.74,0,0,1-.72,1.48l-3,1.9a1.14,1.14,0,0,0-.45,1l0,11.27a1.85,1.85,0,0,1-.5,1.3,1.23,1.23,0,0,1-.85.36m-4.23-32c-.4,0-.73.49-.73,1.06V17a1.18,1.18,0,0,0,.41.95l3,2.11a1.78,1.78,0,0,1,.68,1.45l0,11.21c0,.57.33,1.05.73,1.05h.12a.59.59,0,0,0,.42-.19,1.22,1.22,0,0,0,.31-.86l0-11.27A1.75,1.75,0,0,1,24.21,20l3-1.9a1.14,1.14,0,0,0,.44-1V3.41c0-.57-.33-1.06-.73-1.06a.63.63,0,0,0-.49.28,1.34,1.34,0,0,0-.24.78V15c0,.56-.53,1-1.29,1h0c-.67,0-1.34-.33-1.37-.95h0V3.41c0-.57-.33-1.06-.73-1.06h-.07c-.4,0-.73.49-.73,1.06V15c0,.52-.54.86-1.31.86h0c-.78,0-1.32-.36-1.33-.86V3.41c0-.57-.33-1.06-.73-1.06Z"/>
	<path class="cls-5" d="M21.59,21.52v5.3H5.08A6.62,6.62,0,0,1,8.26,14.4a8.07,8.07,0,0,1,1,.07,8,8,0,0,1-.17-1.64,8.18,8.18,0,0,1,8.18-8.18h.25V17a1.47,1.47,0,0,0,.55,1.2l3,2.11a1.49,1.49,0,0,1,.54,1.2"/>
	<path class="cls-4" d="M22,27.2H5l-.08-.05A7,7,0,0,1,8.26,14l.51,0a9.58,9.58,0,0,1-.08-1.21,8.58,8.58,0,0,1,8.56-8.57h.63V17a1.09,1.09,0,0,0,.39.89l3,2.11a1.85,1.85,0,0,1,.7,1.51ZM5.18,26.44h16V21.52a1.09,1.09,0,0,0-.38-.88l-3-2.12A1.82,1.82,0,0,1,17.12,17V5a7.82,7.82,0,0,0-7.67,7.8,8,8,0,0,0,.16,1.57l.11.52-.53-.07a8.15,8.15,0,0,0-.93-.06A6.23,6.23,0,0,0,5.18,26.44"/>
	<path class="cls-5" d="M39,21a6.62,6.62,0,0,1-3.44,5.8H23.8V21.46a1.43,1.43,0,0,1,.58-1.22l3-1.9a1.46,1.46,0,0,0,.58-1.22V10.37H28a6.63,6.63,0,0,1,4.7,4A6.63,6.63,0,0,1,39,21"/>
	<path class="cls-4" d="M35.65,27.2H23.42V21.46a1.8,1.8,0,0,1,.75-1.54l3-1.9a1.06,1.06,0,0,0,.41-.9V9.91L28,10h.06a7,7,0,0,1,4.88,4,7,7,0,0,1,2.79,13.11Zm-11.47-.76H35.45a6.24,6.24,0,0,0-2.79-11.65h-.25l-.09-.23a6.19,6.19,0,0,0-4-3.69v6.26a1.81,1.81,0,0,1-.76,1.54l-3,1.9a1.08,1.08,0,0,0-.41.9Z"/>
	<path class="cls-4" d="M23.8,26.82v5.91a1.23,1.23,0,0,1-1,1.36h-.12c-.57,0-1-.61-1-1.36V26.82Z"/>
	<polygon class="cls-6" points="49.27 12.44 55.25 12.44 55.25 14.49 51.53 14.49 51.53 18.5 54.45 18.5 54.45 20.55 51.53 20.55 51.53 26.82 49.27 26.82 49.27 12.44"/>
	<path class="cls-6" d="M58.39,26.08a3.8,3.8,0,0,1-.88-2.67V15.85a3.8,3.8,0,0,1,.88-2.67,3.9,3.9,0,0,1,5.1,0,3.76,3.76,0,0,1,.88,2.67v7.56a3.76,3.76,0,0,1-.88,2.67,3.93,3.93,0,0,1-5.1,0m3.72-2.53V15.7c0-.94-.39-1.42-1.17-1.42s-1.17.48-1.17,1.42v7.85c0,.95.39,1.42,1.17,1.42s1.17-.47,1.17-1.42"/>
	<path class="cls-6" d="M67.23,12.44h3.35a3.48,3.48,0,0,1,2.55.81,3.43,3.43,0,0,1,.8,2.49v.89c0,1.49-.5,2.44-1.48,2.83v0a1.78,1.78,0,0,1,1.16,1,5.2,5.2,0,0,1,.34,2v2.53a9.17,9.17,0,0,0,0,1,2.61,2.61,0,0,0,.2.75h-2.3a3.51,3.51,0,0,1-.16-.66,9.35,9.35,0,0,1,0-1.11V22.42A2.25,2.25,0,0,0,71.37,21a1.35,1.35,0,0,0-1.1-.39h-.78v6.17H67.23Zm3.08,6.16a1.39,1.39,0,0,0,1-.35,1.67,1.67,0,0,0,.34-1.17V16a1.85,1.85,0,0,0-.28-1.13,1.07,1.07,0,0,0-.87-.35h-1V18.6Z"/>
	<polygon class="cls-6" points="76.84 12.44 79.1 12.44 79.1 18.5 81.98 12.44 84.24 12.44 81.55 17.72 84.28 26.82 81.92 26.82 80.01 20.41 79.1 22.24 79.1 26.82 76.84 26.82 76.84 12.44"/>
	<path class="cls-6" d="M86.69,12.44H90a3.29,3.29,0,0,1,2.53.9A3.76,3.76,0,0,1,93.38,16v1.42a3.76,3.76,0,0,1-.84,2.65A3.29,3.29,0,0,1,90,21H89v5.86H86.69ZM90,18.91a1.11,1.11,0,0,0,.84-.31,1.61,1.61,0,0,0,.27-1.05v-1.7a1.58,1.58,0,0,0-.27-1,1.07,1.07,0,0,0-.84-.31H89v4.42Z"/>
	<path class="cls-6" d="M96.67,26.08a3.76,3.76,0,0,1-.88-2.67V15.85a3.76,3.76,0,0,1,.88-2.67,3.9,3.9,0,0,1,5.1,0,3.8,3.8,0,0,1,.88,2.67v7.56a3.8,3.8,0,0,1-.88,2.67,3.93,3.93,0,0,1-5.1,0m3.72-2.53V15.7c0-.94-.39-1.42-1.17-1.42s-1.17.48-1.17,1.42v7.85c0,.95.39,1.42,1.17,1.42s1.17-.47,1.17-1.42"/>
	<path class="cls-6" d="M106,26.09a3.88,3.88,0,0,1-.85-2.68v-.82h2.14v1c0,.93.39,1.4,1.17,1.4a1.1,1.1,0,0,0,.88-.34,1.7,1.7,0,0,0,.29-1.1,3,3,0,0,0-.41-1.59,7.6,7.6,0,0,0-1.52-1.66,9,9,0,0,1-2-2.23,4.51,4.51,0,0,1-.55-2.24,3.72,3.72,0,0,1,.86-2.64,3.22,3.22,0,0,1,2.51-.94,3.08,3.08,0,0,1,2.45.94,3.86,3.86,0,0,1,.83,2.68v.59h-2.13V15.7a1.68,1.68,0,0,0-.29-1.08,1.05,1.05,0,0,0-.84-.34c-.76,0-1.13.46-1.13,1.38a2.72,2.72,0,0,0,.42,1.46,8,8,0,0,0,1.53,1.64A8.77,8.77,0,0,1,111.32,21a4.93,4.93,0,0,1,.53,2.37,3.87,3.87,0,0,1-.87,2.71,3.28,3.28,0,0,1-2.54.94,3.18,3.18,0,0,1-2.48-.93"/>
	<rect class="cls-6" x="42.62" y="1.74" width="1.05" height="32.6"/>
</svg>