<?xml version="1.0" encoding="utf-8"?>
<!-- Generator: Adobe Illustrator 30.1.0, SVG Export Plug-In . SVG Version: 9.03 Build 0)  -->
<svg version="1.1" id="Layer_1" xmlns="http://www.w3.org/2000/svg" xmlns:xlink="http://www.w3.org/1999/xlink" x="0px" y="0px"
	 viewBox="0 0 1080 386.806" style="enable-background:new 0 0 1080 386.806;" xml:space="preserve">
<g>
	<g>
		<g>
			<path style="fill:#756D6A;" d="M239.176,62.613v173.244L113.03,112.077v123.78h-10.65V102.374
				c0-13.49-1.893-33.134-20.589-38.578v-1.183c17.275,0,28.635,9.941,34.553,14.911l112.182,108.867V62.613H239.176z"/>
			<path style="fill:#756D6A;" d="M425.206,148.761c0,62.719-37.395,90.171-83.546,90.171s-83.543-27.452-83.543-90.171
				c0-60.588,37.391-89.935,83.543-89.935S425.206,87.701,425.206,148.761z M396.805,148.761c0-55.618-24.614-82.126-55.146-82.126
				c-30.294,0-55.142,26.981-55.142,82.126c0,57.274,24.848,82.126,55.142,82.126C372.191,230.887,396.805,206.035,396.805,148.761z
				"/>
			<path style="fill:#756D6A;" d="M583.784,190.888c0,9.705-7.101,44.969-66.979,44.969h-63.426V86.99
				c0-10.888-7.811-21.538-21.065-23.195v-1.183h84.491c53.014-0.71,59.405,37.631,59.405,45.205
				c0,23.903-15.857,34.791-30.056,39.761C563.195,151.6,583.784,162.253,583.784,190.888z M479.414,142.371h38.574
				c13.964,0,32.425-10.65,32.425-33.37c0-24.378-15.857-38.104-37.395-38.104h-33.605V142.371z M555.149,189.705
				c0-35.736-37.633-39.05-44.734-39.05h-31.001v75.973h37.391C516.805,226.628,555.149,225.679,555.149,189.705z"/>
			<path style="fill:#756D6A;" d="M730.053,225.207v10.65H618.817V86.752c0-10.176-6.391-18.934-20.827-22.957v-1.183h44.496
				v162.594H730.053z"/>
			<path style="fill:#756D6A;" d="M864.959,226.862v8.994H755.854V86.752c0-10.176-6.629-18.934-21.065-22.957v-1.183h130.17v8.993
				h-83.074v68.636h69.348v10.652h-69.348v75.969H864.959z"/>
			<path style="fill:#756D6A;" d="M998.209,191.598c0,17.989-13.254,47.807-54.197,47.807c-32.425,0-53.253-13.961-58.222-49.462
				h7.812c5.204,32.422,32.187,39.523,47.807,39.523c27.69,0,34.319-19.406,34.319-27.928c0-18.223-14.913-28.163-43.313-42.837
				c-17.985-9.229-48.517-24.376-48.517-53.959c0-37.631,37.157-45.205,50.411-45.205c33.136,0,46.862,17.513,51.594,42.363h-8.518
				c-3.552-13.016-13.016-32.66-42.837-32.66c-14.674,0-30.294,11.833-30.294,26.743c0,17.515,21.062,28.637,42.837,39.761
				C988.27,156.335,998.209,171.009,998.209,191.598z"/>
		</g>
		<g>
			<path style="fill:#756D6A;" d="M127.136,319.671c-0.49,0.984-4.92,8.309-16.291,8.309c-12.191,0-19.3-9.293-19.3-20.831
				c0-11.481,7.108-20.831,19.3-20.831c11.534,0,15.907,7.602,16.348,8.366l-1.314,1.368c-12.518-15.037-27.445-5.083-27.445,11.097
				c0,14.87,14.87,26.188,27.335,11.207L127.136,319.671z"/>
			<path style="fill:#756D6A;" d="M143.043,326.996l17.936-40.02l18.369,40.02h-6.618l-3.442-7.545h-20.173l-3.389,7.545H143.043z
				 M150.041,317.373h18.262l-9.24-20.117L150.041,317.373z"/>
			<path style="fill:#756D6A;" d="M223.357,289.438h-13.232v37.558h-6.014v-37.558h-13.286v-2.462h32.532V289.438z"/>
			<path style="fill:#756D6A;" d="M266.052,324.918v2.078h-25.204v-40.02h25.204v2.078h-19.189v15.854h16.017v2.462h-16.017v17.548
				H266.052z"/>
			<path style="fill:#756D6A;" d="M294.588,308.954c-1.638,0.053-3.169,0.053-4.483,0.053v17.989h-6.014v-40.02h6.014
				c6.288,0,19.026-0.163,19.026,11.207c0,6.398-3.879,9.129-8.362,10.28l13.339,18.532h-6.725L294.588,308.954z M296.556,306.712
				c1.041-0.163,2.078-0.49,2.956-1.037c0.437-0.33,0.817-0.657,1.201-1.094c0.384-0.437,0.767-0.984,0.984-1.531
				c0.33-0.657,0.547-1.368,0.71-2.078c0.163-0.874,0.22-1.858,0.22-2.789c-0.274-8.692-6.998-9.293-8.202-9.293h-4.32v17.985h4.32
				C295.135,306.876,295.845,306.822,296.556,306.712z"/>
			<path style="fill:#756D6A;" d="M338.16,326.996h-5.467v-40.02h5.467V326.996z"/>
			<path style="fill:#756D6A;" d="M388.347,326.996l-29.139-28.592v28.592h-2.462v-39.967l29.143,28.539v-28.539h2.458V326.996z"/>
			<path style="fill:#756D6A;" d="M441.433,319.451c-0.163,0.384-0.877,1.584-2.241,2.952c-2.408,2.405-6.835,5.357-14.053,5.357
				c-12.191,0-19.3-9.293-19.3-20.774s7.108-20.831,19.3-20.831c11.591,0,15.911,7.598,16.348,8.366l-1.311,1.368
				c-12.522-15.09-27.445-4.92-27.445,11.097c0,13.396,12.245,23.946,23.783,14.707V307.86h4.92V319.451z"/>
			<path style="fill:#756D6A;" d="M485.769,326.996l17.932-40.02l18.369,40.02h-6.614l-3.446-7.545h-20.174l-3.389,7.545H485.769z
				 M492.767,317.373h18.259l-9.24-20.117L492.767,317.373z"/>
			<path style="fill:#756D6A;" d="M566.079,289.438h-13.232v37.558h-6.014v-37.558h-13.286v-2.462h32.532V289.438z"/>
			<path style="fill:#756D6A;" d="M616.92,326.996h-5.467v-40.02h5.467V326.996z"/>
			<path style="fill:#756D6A;" d="M668.037,289.438h-13.229v37.558h-6.014v-37.558h-13.286v-2.462h32.528V289.438z"/>
			<path style="fill:#756D6A;" d="M711.936,316.662c0,4.156-3.062,11.044-12.518,11.044c-7.492,0-12.302-3.225-13.449-11.428h1.801
				c1.204,7.492,7.439,9.133,11.044,9.133c6.398,0,7.929-4.483,7.929-6.451c0-4.213-3.446-6.508-10.007-9.897
				c-4.153-2.131-11.208-5.63-11.208-12.465c0-8.692,8.586-10.444,11.648-10.444c7.652,0,10.824,4.046,11.918,9.787h-1.968
				c-0.821-3.005-3.009-7.545-9.897-7.545c-3.389,0-6.998,2.735-6.998,6.177c0,4.046,4.867,6.618,9.897,9.186
				C709.642,308.517,711.936,311.906,711.936,316.662z"/>
			<path style="fill:#756D6A;" d="M762.23,289.054v15.854h16.021v2.462H762.23v19.626h-6.014v-40.02h25.203v2.078H762.23z"/>
			<path style="fill:#756D6A;" d="M805.476,326.996h-5.467v-40.02h5.467V326.996z"/>
			<path style="fill:#756D6A;" d="M855.662,326.996l-29.14-28.592v28.592h-2.462v-39.967l29.143,28.539v-28.539h2.458V326.996z"/>
			<path style="fill:#756D6A;" d="M898.357,324.918v2.078h-25.203v-40.02h25.203v2.078h-19.189v15.854h16.021v2.462h-16.021v17.548
				H898.357z"/>
			<path style="fill:#756D6A;" d="M942.26,316.662c0,4.156-3.062,11.044-12.522,11.044c-7.488,0-12.302-3.225-13.449-11.428h1.805
				c1.201,7.492,7.435,9.133,11.044,9.133c6.398,0,7.925-4.483,7.925-6.451c0-4.213-3.442-6.508-10.003-9.897
				c-4.156-2.131-11.207-5.63-11.207-12.465c0-8.692,8.582-10.444,11.644-10.444c7.655,0,10.824,4.046,11.918,9.787h-1.968
				c-0.821-3.005-3.005-7.545-9.897-7.545c-3.389,0-6.998,2.735-6.998,6.177c0,4.046,4.867,6.618,9.897,9.186
				C939.962,308.517,942.26,311.906,942.26,316.662z"/>
			<path style="fill:#756D6A;" d="M988.454,289.438h-13.232v37.558h-6.014v-37.558h-13.286v-2.462h32.532V289.438z"/>
		</g>
	</g>
</g>
<g>
</g>
<g>
</g>
<g>
</g>
<g>
</g>
<g>
</g>
<g>
</g>
<g>
</g>
<g>
</g>
<g>
</g>
<g>
</g>
<g>
</g>
<g>
</g>
<g>
</g>
<g>
</g>
<g>
</g>
</svg>
