<?xml version="1.0" encoding="utf-8"?>
<svg version="1.1" id="Layer_1" xmlns="http://www.w3.org/2000/svg" xmlns:xlink="http://www.w3.org/1999/xlink" x="0px" y="0px"
	 viewBox="0 0 1080 1080" style="enable-background:new 0 0 1080 1080;" xml:space="preserve">
<g>
	<g>
		<linearGradient id="SVGID_1_" gradientUnits="userSpaceOnUse" x1="1017.4941" y1="446.4044" x2="660.6015" y2="803.2971">
			<stop  offset="0" style="stop-color:#A98845"/>
			<stop  offset="0.05" style="stop-color:#DBCFAC"/>
			<stop  offset="0.0665" style="stop-color:#CCB98C"/>
			<stop  offset="0.0844" style="stop-color:#BFA772"/>
			<stop  offset="0.1041" style="stop-color:#B5995E"/>
			<stop  offset="0.1265" style="stop-color:#AE9050"/>
			<stop  offset="0.1536" style="stop-color:#AA8A48"/>
			<stop  offset="0.1986" style="stop-color:#A98845"/>
			<stop  offset="0.228" style="stop-color:#AD8E4E"/>
			<stop  offset="0.276" style="stop-color:#B99F66"/>
			<stop  offset="0.3362" style="stop-color:#CCBA8E"/>
			<stop  offset="0.3765" style="stop-color:#DBCFAC"/>
			<stop  offset="0.4199" style="stop-color:#CCBA8E"/>
			<stop  offset="0.4847" style="stop-color:#B99F66"/>
			<stop  offset="0.5364" style="stop-color:#AD8E4E"/>
			<stop  offset="0.568" style="stop-color:#A98845"/>
			<stop  offset="0.6292" style="stop-color:#AA8A48"/>
			<stop  offset="0.6659" style="stop-color:#AE9050"/>
			<stop  offset="0.6963" style="stop-color:#B69A5E"/>
			<stop  offset="0.7231" style="stop-color:#C0A872"/>
			<stop  offset="0.7474" style="stop-color:#CDBA8C"/>
			<stop  offset="0.7666" style="stop-color:#DACDA7"/>
			<stop  offset="0.7884" style="stop-color:#CDBB8E"/>
			<stop  offset="0.818" style="stop-color:#C0A973"/>
			<stop  offset="0.8504" style="stop-color:#B69A5F"/>
			<stop  offset="0.8868" style="stop-color:#AF9050"/>
			<stop  offset="0.9303" style="stop-color:#AA8A48"/>
			<stop  offset="0.9996" style="stop-color:#A98845"/>
		</linearGradient>
		<path style="fill:url(#SVGID_1_);" d="M903.475,458.491H778.121c-3.36,0-6.079-2.719-6.079-6.077c0-3.358,2.719-6.075,6.079-6.075
			h125.354c3.358,0,6.077,2.717,6.077,6.075C909.551,455.773,906.833,458.491,903.475,458.491z M753.697,359.227
			c0-3.224,2.616-5.842,5.844-5.842c3.226,0,5.844,2.618,5.844,5.842c0,0.946-0.246,1.826-0.644,2.616
			c1.353-0.268,2.786-0.087,4.045,0.592l1.167,0.625c13.71-22.677,36.673-37.348,62.438-39.999
			c-1.392-1.798-2.229-4.047-2.229-6.497c0-5.875,4.761-10.636,10.636-10.636c5.873,0,10.634,4.761,10.634,10.636
			c0,2.447-0.835,4.695-2.225,6.492c25.768,2.639,48.751,17.304,62.474,39.983l1.13-0.605c1.256-0.678,2.69-0.859,4.047-0.589
			c-0.399-0.791-0.646-1.672-0.646-2.62c0-3.224,2.616-5.842,5.844-5.842c3.228,0,5.844,2.618,5.844,5.842
			c0,3.23-2.616,5.844-5.844,5.844c-0.346,0-0.681-0.044-1.011-0.102c0.695,1.321,0.9,2.876,0.504,4.375l-17.016,64.659
			c-0.702,2.664-3.115,4.526-5.875,4.526h-92.115c-3.36,0-6.077-2.717-6.077-6.073c0-3.36,2.717-6.079,6.077-6.079h87.431
			l12.272-46.644l-35.353,18.94c-1.502,0.801-3.28,0.95-4.895,0.369c-1.609-0.571-2.907-1.794-3.572-3.37l-21.627-51.357
			l-21.624,51.357c-0.665,1.576-1.965,2.798-3.572,3.37c-1.621,0.575-3.393,0.428-4.895-0.369l-35.365-18.94l13.469,51.172
			c0.853,3.247-1.08,6.57-4.326,7.424c-0.523,0.136-1.038,0.2-1.555,0.2c-2.693,0-5.15-1.803-5.867-4.526l-17.02-64.659
			c-0.395-1.499-0.189-3.054,0.506-4.375c-0.329,0.058-0.663,0.102-1.009,0.102C756.313,365.071,753.697,362.457,753.697,359.227z
			 M850.222,335.381l20.812,49.432l29.908-16.021C889.576,350.372,871.07,338.211,850.222,335.381z M780.687,368.811l29.872,16.002
			l20.81-49.426C810.532,338.229,792.047,350.39,780.687,368.811z M849.819,480.146c0.004-0.192,0.025-0.377,0.035-0.566h-9.056
			c0.016,0.204,0.051,0.385,0.054,0.604c0.175,9.921,0.385,19.836,0.575,29.756c0.204,10.69,0.463,21.381,0.552,32.075
			c0.023,2.552,0.974,3.366,3.428,3.335c2.398-0.029,3.836-0.521,3.824-3.341c-0.064-13.015-0.078-26.031,0.023-39.048
			C849.313,495.357,849.619,487.75,849.819,480.146z M830.77,545.351c2.456,0.031,3.407-0.783,3.428-3.335
			c0.089-10.694,0.348-21.385,0.554-32.075c0.188-9.921,0.402-19.836,0.575-29.756c0.002-0.22,0.039-0.4,0.054-0.604h-9.058
			c0.012,0.188,0.031,0.373,0.037,0.566c0.198,7.604,0.503,15.211,0.564,22.817c0.099,13.017,0.086,26.033,0.025,39.048
			C826.934,544.83,828.372,545.322,830.77,545.351z M760.168,603.688l-69.418,86.972c-0.908,1.234-2.999,3.263-4.45,4.621h-55.76
			c1.57-1.819,4.761-5.169,8.183-6.662c0.212-0.101,0.369-0.156,0.472-0.156c6.059-2.297,10.92-4.699,14.575-7.208
			c3.654-2.507,6.895-5.43,9.715-8.774l69.731-81.642c-19.639-2.511-34.498-8.543-44.58-18.1
			c-10.08-9.561-15.125-22.331-15.125-38.315c0-18.909,6.403-32.777,19.196-41.603c12.799-8.827,32.938-13.242,60.411-13.242h68.167
			c-0.004,0.041-0.017,0.068-0.021,0.111c-0.305,4.602-0.717,9.2-0.911,13.807c-0.295,7.021-0.381,14.048-0.669,21.068
			c-0.49,12.016-1.197,24.022-1.557,36.039c-0.2,6.681,2.585,12.546,6.069,18.083c1.434,2.281,2.791,4.621,4.361,6.804
			c2.623,3.646,3.288,7.902,3.185,12.086c-0.258,10.473-0.958,20.936-1.535,31.397c-0.365,6.627-0.805,13.25-1.25,19.869
			c-0.723,10.743-1.526,21.478-2.198,32.221c-0.342,5.472-0.669,10.961-0.649,16.437c0.012,3.273,1.351,5.954,3.525,7.781h-77.613
			c0,0-1.461-1.434-1.568-2.587c0.107-2.089,2.719-3.449,7.832-4.075c0.422-0.101,0.736-0.156,0.946-0.156
			c2.608-0.208,4.882-0.548,6.817-1.018c1.934-0.47,3.677-1.069,5.245-1.802c3.869-1.879,6.557-4.518,8.069-7.915
			c1.52-3.393,2.272-9.423,2.272-18.096v-56.573c0-2.608-0.391-4.388-1.172-5.325c-0.787-0.941-2.322-1.413-4.623-1.413
			c-3.762,0-6.761,0.55-9.007,1.646C764.582,599.065,762.362,600.971,760.168,603.688z M773.649,588.958
			c3.234,0,5.381-0.548,6.421-1.644c1.049-1.1,1.564-3.525,1.564-7.289v-81.482c0-4.911-1.09-8.226-3.286-9.952
			c-2.196-1.722-6.318-2.587-12.385-2.587c-19.218,0-33.4,4.338-42.544,13.007c-9.138,8.673-13.706,22.096-13.706,40.272
			c0,17.762,4.907,30.481,14.729,38.161C734.262,585.12,750.662,588.958,773.649,588.958z M1045.642,695.282h-55.766
			c-1.45-1.358-3.537-3.387-4.446-4.621l-69.418-86.972c-2.196-2.717-4.415-4.623-6.664-5.719c-2.248-1.096-5.247-1.646-9.007-1.646
			c-2.301,0-3.838,0.472-4.623,1.413c-0.783,0.937-1.174,2.717-1.174,5.325v56.573c0,8.673,0.754,14.703,2.274,18.096
			c1.512,3.397,4.2,6.036,8.069,7.915c1.566,0.733,3.312,1.331,5.247,1.802c1.932,0.47,4.205,0.81,6.815,1.018
			c0.21,0,0.523,0.054,0.943,0.156c5.117,0.626,7.727,1.986,7.836,4.075c-0.109,1.152-1.568,2.587-1.568,2.587h-77.615
			c2.175-1.827,3.514-4.508,3.527-7.781c0.019-5.476-0.307-10.964-0.651-16.437c-0.672-10.743-1.475-21.478-2.196-32.221
			c-0.445-6.619-0.886-13.242-1.25-19.869c-0.577-10.461-1.277-20.924-1.533-31.397c-0.105-4.184,0.56-8.44,3.185-12.086
			c1.57-2.182,2.923-4.522,4.357-6.804c3.484-5.537,6.271-11.402,6.069-18.083c-0.359-12.018-1.067-24.024-1.557-36.039
			c-0.284-7.019-0.369-14.046-0.666-21.068c-0.192-4.608-0.608-9.206-0.91-13.807c-0.006-0.043-0.019-0.07-0.021-0.111h68.163
			c27.475,0,47.612,4.415,60.411,13.242c12.795,8.827,19.198,22.694,19.198,41.603c0,15.984-5.047,28.754-15.125,38.315
			c-10.082,9.557-24.939,15.589-44.582,18.1l69.735,81.642c2.818,3.345,6.057,6.267,9.711,8.774
			c3.656,2.509,8.516,4.911,14.575,7.208c0.105,0,0.26,0.054,0.474,0.156C1040.877,690.113,1044.07,693.463,1045.642,695.282z
			 M951.739,577.443c9.818-7.68,14.727-20.399,14.727-38.161c0-18.176-4.569-31.599-13.708-40.272
			c-9.145-8.669-23.324-13.007-42.544-13.007c-6.065,0-10.189,0.865-12.385,2.587c-2.194,1.726-3.286,5.041-3.286,9.952v81.482
			c0,3.764,0.515,6.19,1.566,7.289c1.04,1.096,3.187,1.644,6.421,1.644C925.516,588.958,941.916,585.12,951.739,577.443z
			 M676.156,769.349c1.049,0.739,2.147,1.176,3.298,1.31v2.517c-0.974-0.089-2.215-0.154-3.727-0.198
			c-1.514-0.045-3.164-0.066-4.954-0.066c-0.884,0-1.761,0.016-2.633,0.049c-0.872,0.033-1.741,0.084-2.604,0.152l-10.931-15.673
			c-1.502-2.188-2.658-3.585-3.463-4.194c-0.806-0.606-1.708-0.912-2.699-0.912c-0.066,0-0.173,0.018-0.315,0.051
			c-0.146,0.033-0.26,0.051-0.35,0.051v11.664c0,2.361,0.443,3.98,1.325,4.853c0.884,0.872,2.54,1.31,4.971,1.31h0.33v2.851
			c-3.776-0.068-6.918-0.118-9.427-0.152c-2.507-0.033-4.38-0.049-5.614-0.049c-2.231,0-3.994,0.016-5.286,0.049
			c-1.292,0.033-2.513,0.084-3.661,0.152l-0.035-2.851c2.806,0,4.674-0.433,5.601-1.292c0.929-0.863,1.393-2.629,1.393-5.301V735.6
			c0-2.276-0.449-3.764-1.345-4.472c-0.892-0.707-2.777-1.082-5.649-1.129v-2.682c1.24,0.045,2.491,0.076,3.762,0.099
			c1.271,0.021,2.966,0.033,5.088,0.033c1.389,0,3.632-0.033,6.724-0.099c3.094-0.066,5.502-0.099,7.223-0.099
			c6.384,0,11.095,0.933,14.134,2.8c3.036,1.866,4.555,4.777,4.555,8.729c0,3.047-0.983,5.573-2.95,7.571
			c-1.967,2-4.761,3.298-8.384,3.894c1.148,0.484,2.938,2.418,5.369,5.797c0.286,0.398,0.507,0.707,0.663,0.927l6.594,9.214
			C674.106,767.555,675.106,768.608,676.156,769.349z M660.401,739.942c0-3.313-0.768-5.737-2.301-7.272
			c-1.535-1.535-3.96-2.305-7.274-2.305c-1.283,0-2.11,0.167-2.486,0.497c-0.377,0.332-0.564,1.049-0.564,2.153v16.272
			c0.266,0.021,0.564,0.037,0.896,0.049c0.33,0.01,0.795,0.018,1.39,0.018c3.558,0,6.168-0.764,7.838-2.287
			C659.567,745.543,660.401,743.168,660.401,739.942z M775.019,740.787c1.158,2.816,1.737,5.925,1.737,9.326
			c0,3.49-0.608,6.664-1.821,9.528c-1.217,2.859-3.049,5.404-5.502,7.635c-2.474,2.276-5.278,3.976-8.417,5.103
			c-3.136,1.125-6.658,1.691-10.568,1.691c-7.532,0-13.625-2.204-18.275-6.611c-4.648-4.406-6.973-10.142-6.973-17.212
			s2.384-12.818,7.155-17.247c4.771-4.429,11.001-6.642,18.687-6.642c3.889,0,7.367,0.564,10.44,1.689
			c3.067,1.127,5.83,2.849,8.282,5.169C772.106,735.447,773.859,737.969,775.019,740.787z M764.498,750.247
			c0-6.737-1.174-11.85-3.512-15.343c-2.342-3.488-5.789-5.235-10.339-5.235c-4.53,0-7.859,1.679-9.991,5.037
			c-2.132,3.358-3.197,8.603-3.197,15.739c0,6.671,1.172,11.718,3.51,15.143c2.344,3.424,5.789,5.136,10.34,5.136
			c4.507,0,7.832-1.664,9.973-4.989C763.427,762.411,764.498,757.249,764.498,750.247z M866.306,727.45
			c-0.243,0-0.606,0.012-1.092,0.031c-2.674,0.068-4.53,0.103-5.566,0.103c-1.99,0-3.475-0.017-4.458-0.051
			c-0.983-0.035-1.895-0.083-2.734-0.15v2.684c1.877,0.089,3.17,0.363,3.879,0.828c0.705,0.464,1.059,1.259,1.059,2.386
			c0,0.752-0.21,1.646-0.63,2.684c-0.42,1.038-1.094,2.319-2.019,3.844l-6.695,11.032l-6.66-12.126
			c-0.993-1.877-1.671-3.259-2.037-4.141c-0.365-0.884-0.546-1.568-0.546-2.056c0-0.84,0.402-1.456,1.209-1.854
			c0.807-0.398,2.103-0.618,3.891-0.665l-0.031-2.616c-1.901,0.066-3.807,0.115-5.715,0.15c-1.912,0.033-3.817,0.051-5.715,0.051
			c-1.636,0-3.341-0.017-5.121-0.051c-1.776-0.035-3.671-0.083-5.68-0.15v2.585c0.927,0.134,1.71,0.327,2.352,0.579
			c0.641,0.255,1.17,0.581,1.59,0.976c0.354,0.356,0.779,0.898,1.279,1.625c0.495,0.731,0.997,1.572,1.504,2.518l10.77,19.517v9.178
			c0,2.34-0.443,3.91-1.325,4.705c-0.884,0.795-2.651,1.215-5.302,1.259v2.785c1.213-0.068,2.633-0.118,4.258-0.152
			c1.621-0.033,4.289-0.049,8.001-0.049c2.21,0,4.295,0.016,6.261,0.049c1.967,0.033,3.811,0.084,5.533,0.152l0.033-2.785
			c-2.649,0-4.443-0.431-5.383-1.292c-0.941-0.863-1.409-2.509-1.409-4.936v-9.711l12.492-20.574
			c0.684-1.149,1.432-2.011,2.239-2.587c0.807-0.573,1.792-0.948,2.964-1.123v-2.719c-0.154,0.023-0.309,0.041-0.462,0.049
			C866.881,727.446,866.637,727.45,866.306,727.45z M951.947,768.985c0.991,0.762,2.386,1.207,4.172,1.341v2.785
			c-1.965-0.068-3.929-0.118-5.896-0.152c-1.965-0.033-3.908-0.049-5.832-0.049c-1.922,0-3.848,0.016-5.781,0.049
			c-1.932,0.033-3.893,0.084-5.881,0.152v-2.785c2.451-0.111,4.046-0.354,4.786-0.729c0.741-0.377,1.112-1.038,1.112-1.988
			c0-0.509-0.124-1.22-0.365-2.14c-0.243-0.913-0.575-1.914-0.995-2.997l-1.358-3.613H920.7l-1.16,2.653
			c-0.396,0.97-0.723,1.928-0.976,2.865c-0.256,0.939-0.381,1.685-0.381,2.237c0,1.283,0.451,2.221,1.356,2.818
			c0.908,0.595,2.311,0.894,4.209,0.894v2.785c-1.436-0.068-2.851-0.118-4.24-0.152c-1.391-0.033-2.762-0.049-4.11-0.049
			c-1.304,0-2.618,0.016-3.943,0.049c-1.323,0.033-2.649,0.084-3.976,0.152v-2.785c1.613-0.134,2.967-0.62,4.06-1.459
			c1.094-0.838,2.006-2.12,2.732-3.842l16.336-38.535h3.412l15.242,38.402C950.056,766.857,950.952,768.221,951.947,768.985z
			 M934.617,755.547l-5.962-15.805l-6.53,15.805H934.617z M1037.538,767.193c-2.087,1.648-5.043,2.47-8.864,2.47
			c-3.313,0-5.566-0.612-6.759-1.838c-1.193-1.226-1.79-3.607-1.79-7.14v-24.818c0-2.299,0.414-3.834,1.244-4.606
			c0.826-0.773,2.445-1.158,4.853-1.158h0.396v-2.719c-2.628,0.066-4.934,0.115-6.924,0.15c-1.986,0.033-3.611,0.051-4.868,0.051
			c-1.704,0-3.531-0.017-5.486-0.051c-1.955-0.035-4.036-0.083-6.246-0.15v2.719h0.334c2.229,0,3.77,0.379,4.619,1.141
			c0.851,0.764,1.275,2.171,1.275,4.225v28.064c0,2.653-0.402,4.448-1.209,5.385c-0.805,0.94-2.301,1.409-4.491,1.409h-0.529v2.785
			c0.2,0,0.492,0.008,0.878,0.031c0.385,0.023,0.68,0.033,0.876,0.033c0.179,0,0.461-0.01,0.847-0.033
			c0.387-0.023,0.68-0.031,0.878-0.031c3.203-0.068,6.211-0.118,9.027-0.152c2.818-0.033,5.43-0.049,7.837-0.049
			c3.512,0,7.004,0.016,10.471,0.049c3.467,0.033,6.893,0.084,10.271,0.152l0.299-13.652h-2.785
			C1041.011,762.969,1039.625,765.549,1037.538,767.193z"/>
	</g>
	<g>
		<path style="fill:#A08331;" d="M55.643,546.939c0,7.242,5.122,13.247,12.718,13.247h55.463v-41.155h15.191v56.523H68.361
			c-16.604,0-28.086-12.894-28.086-29.145c0-16.073,11.835-27.908,28.086-27.908v15.191
			C60.765,533.692,55.643,539.874,55.643,546.939z M93.973,526.097c0,4.062-3.533,7.595-7.596,7.595
			c-4.239,0-7.595-3.533-7.595-7.595c0-4.24,3.356-7.596,7.595-7.596C90.44,518.501,93.973,521.857,93.973,526.097z
			 M112.696,526.097c0,4.062-3.533,7.595-7.595,7.595c-4.24,0-7.596-3.533-7.596-7.595c0-4.24,3.356-7.596,7.596-7.596
			C109.163,518.501,112.696,521.857,112.696,526.097z"/>
		<path style="fill:#A08331;" d="M178.928,560.186v15.367H153.14v-78.248h15.367v62.881H178.928z"/>
		<path style="fill:#A08331;" d="M282.081,560.186h8.832v15.367H177.161v-15.367h17.663c2.297-20.312,15.191-38.682,35.857-42.039
			v-15.72h15.19v15.543C266.891,520.797,279.785,539.521,282.081,560.186z M210.721,560.186h19.96v-26.141
			C219.377,537.754,210.721,548.176,210.721,560.186z M266.007,560.186c0-12.187-8.655-23.138-20.136-26.494v26.494H266.007z"/>
		<path style="fill:#A08331;" d="M336.127,575.554h-46.984v-15.367h21.196v-41.155h15.191v41.155h10.598V575.554z M313.341,591.804
			c0,4.063-3.533,7.596-7.595,7.596c-4.24,0-7.596-3.533-7.596-7.596c0-4.239,3.356-7.595,7.596-7.595
			C309.808,584.209,313.341,587.565,313.341,591.804z M332.064,591.804c0,4.063-3.532,7.596-7.595,7.596
			c-4.239,0-7.595-3.533-7.595-7.596c0-4.239,3.356-7.595,7.595-7.595C328.532,584.209,332.064,587.565,332.064,591.804z"/>
		<path style="fill:#A08331;" d="M352.022,546.762c0-15.013,11.658-28.261,28.615-28.261c16.78,0,28.791,13.248,28.791,28.261
			c0,4.593-1.06,9.008-3.356,13.424c-6.182,10.775-14.837,15.367-25.612,15.367h-46.101v-15.367h20.842
			C352.905,555.771,352.022,551.179,352.022,546.762z M368.449,546.939c0,7.066,4.945,13.247,12.187,13.247
			c7.242,0,12.365-6.181,12.365-13.247c0-6.359-5.122-13.601-12.365-13.601C373.571,533.339,368.449,540.58,368.449,546.939z
			 M388.585,502.604c0,4.062-3.532,7.595-7.595,7.595c-4.239,0-7.595-3.533-7.595-7.595c0-4.24,3.356-7.596,7.595-7.596
			C385.053,495.009,388.585,498.365,388.585,502.604z"/>
		<path style="fill:#A08331;" d="M461.356,574.494c-18.899,3.886-37.799-6.181-37.799-28.085c0-14.131,9.361-28.438,29.144-28.438
			c30.028,0,32.678,27.379,29.498,42.215h8.832v15.367h-12.895c-3.709,8.655-9.714,18.017-18.899,28.438l-12.718-10.244
			C453.054,587.212,457.999,580.676,461.356,574.494z M439.983,547.116c0,14.131,17.31,13.954,26.318,12.188
			c2.297-8.125,0.353-25.965-13.247-25.965C445.282,533.339,439.983,539.167,439.983,547.116z"/>
		<path style="fill:#A08331;" d="M489.261,575.554v-15.367h21.196v-41.155h15.191v56.523H489.261z M523.703,591.804
			c0,4.063-3.532,7.596-7.595,7.596c-4.239,0-7.595-3.533-7.595-7.596c0-4.239,3.356-7.595,7.595-7.595
			C520.171,584.209,523.703,587.565,523.703,591.804z"/>
		<path style="fill:#A08331;" d="M69.509,760.994c-18.899,0-35.15-15.013-35.15-34.62c0-14.13,8.126-26.142,20.843-32.5
			l7.595,13.776c-7.418,5.476-12.717,9.363-12.717,18.724c0,10.421,9.008,19.43,19.43,19.43c10.598,0,19.783-8.656,19.783-19.43
			v-72.773h15.191v72.419C104.482,745.274,89.115,760.994,69.509,760.994z"/>
		<path style="fill:#A08331;" d="M144.398,717.19v15.367H118.61v-78.248h15.367v62.882H144.398z"/>
		<path style="fill:#A08331;" d="M142.631,732.556V717.19h25.435v15.367H142.631z"/>
		<path style="fill:#A08331;" d="M166.298,732.556V717.19h25.435v15.367H166.298z"/>
		<path style="fill:#A08331;" d="M189.967,732.556V717.19h25.435v15.367H189.967z"/>
		<path style="fill:#A08331;" d="M213.635,732.556V717.19h25.435v15.367H213.635z"/>
		<path style="fill:#A08331;" d="M237.302,732.556V717.19h25.435v15.367H237.302z"/>
		<path style="fill:#A08331;" d="M260.971,732.556V717.19h25.435v15.367H260.971z"/>
		<path style="fill:#A08331;" d="M284.639,732.556V717.19h25.435v15.367H284.639z"/>
		<path style="fill:#A08331;" d="M308.306,732.556V717.19h25.435v15.367H308.306z"/>
		<path style="fill:#A08331;" d="M331.975,732.556V717.19h25.435v15.367H331.975z"/>
		<path style="fill:#A08331;" d="M355.643,732.556V717.19h25.435v15.367H355.643z"/>
		<path style="fill:#A08331;" d="M379.31,717.19h21.196v-41.156h15.191v56.523H379.31V717.19z M401.743,748.806
			c0,4.062-3.533,7.596-7.596,7.596c-4.239,0-7.595-3.534-7.595-7.596c0-4.239,3.356-7.596,7.595-7.596
			C398.21,741.21,401.743,744.567,401.743,748.806z M420.465,748.806c0,4.062-3.533,7.596-7.595,7.596
			c-4.24,0-7.596-3.534-7.596-7.596c0-4.239,3.356-7.596,7.596-7.596C416.932,741.21,420.465,744.567,420.465,748.806z"/>
		<path style="fill:#A08331;" d="M467.625,731.496c-18.9,3.885-37.8-6.182-37.8-28.085c0-14.131,9.362-28.438,29.145-28.438
			c28.791,0,32.148,27.025,29.498,42.216c-2.649,16.427-12.365,31.97-22.962,43.805l-12.718-10.244
			C459.324,744.214,464.269,737.678,467.625,731.496z M446.253,704.118c0,14.132,17.31,13.955,26.318,12.188
			c2.297-8.126,0.353-25.965-13.247-25.965C451.552,690.341,446.253,696.17,446.253,704.118z"/>
		<path style="fill:#A08331;" d="M531.564,706.238c0,20.312-7.596,39.919-22.609,54.756l-12.718-9.714
			c12.188-14.132,19.253-29.675,19.253-46.102c0-9.362-2.296-19.254-7.418-29.145h17.664
			C529.621,685.749,531.564,695.816,531.564,706.238z"/>
	</g>

		<line style="fill:none;stroke:#A08331;stroke-width:1.9248;stroke-miterlimit:10;" x1="586.664" y1="479.58" x2="586.664" y2="774.071"/>
</g>
</svg>
