<?xml version="1.0" encoding="UTF-8"?>
<svg id="Layer_2" data-name="Layer 2" xmlns="http://www.w3.org/2000/svg" viewBox="0 0 1920.23 1080.37">
  <defs>
    <style>
      .cls-1 {
        fill: #c4c2c3;
      }
    </style>
  </defs>
  <g id="Layer_1-2" data-name="Layer 1">
    <g>
      <polygon class="cls-1" points="240.66 960.19 120.47 840 .29 960.19 1.22 961.12 0 961.12 0 1080.37 120.47 1080.37 120.47 1080.37 120.47 1080.37 240.94 1080.37 240.94 961.12 239.72 961.12 240.66 960.19"/>
      <polygon class="cls-1" points="481.55 960.19 361.36 840 241.18 960.19 242.11 961.12 240.89 961.12 240.89 1080.37 361.36 1080.37 361.36 1080.37 361.36 1080.37 481.83 1080.37 481.83 961.12 480.61 961.12 481.55 960.19"/>
      <polygon class="cls-1" points="720.12 960.19 599.94 840 479.75 960.19 480.69 961.12 479.47 961.12 479.47 1080.37 599.94 1080.37 599.94 1080.37 599.94 1080.37 720.41 1080.37 720.41 961.12 719.19 961.12 720.12 960.19"/>
      <polygon class="cls-1" points="961.01 960.19 840.83 840 720.64 960.19 721.58 961.12 720.36 961.12 720.36 1080.37 840.83 1080.37 840.83 1080.37 840.83 1080.37 961.3 1080.37 961.3 961.12 960.08 961.12 961.01 960.19"/>
      <polygon class="cls-1" points="1199.59 960.19 1079.4 840 959.22 960.19 960.15 961.12 958.93 961.12 958.93 1080.37 1079.4 1080.37 1079.4 1080.37 1079.4 1080.37 1199.88 1080.37 1199.88 961.12 1198.66 961.12 1199.59 960.19"/>
      <polygon class="cls-1" points="1440.48 960.19 1320.3 840 1200.11 960.19 1201.04 961.12 1199.82 961.12 1199.82 1080.37 1320.3 1080.37 1320.3 1080.37 1320.3 1080.37 1440.77 1080.37 1440.77 961.12 1439.55 961.12 1440.48 960.19"/>
      <polygon class="cls-1" points="1679.06 960.19 1558.87 840 1438.69 960.19 1439.62 961.12 1438.4 961.12 1438.4 1080.37 1558.87 1080.37 1558.87 1080.37 1558.87 1080.37 1679.34 1080.37 1679.34 961.12 1678.12 961.12 1679.06 960.19"/>
      <polygon class="cls-1" points="1919.95 960.19 1799.76 840 1679.58 960.19 1680.51 961.12 1679.29 961.12 1679.29 1080.37 1799.76 1080.37 1799.76 1080.37 1799.76 1080.37 1920.23 1080.37 1920.23 961.12 1919.01 961.12 1919.95 960.19"/>
      <polygon class="cls-1" points="240.66 120.19 120.47 240.37 .29 120.19 1.22 119.25 0 119.25 0 0 120.47 0 120.47 0 120.47 0 240.94 0 240.94 119.25 239.72 119.25 240.66 120.19"/>
      <polygon class="cls-1" points="481.55 120.19 361.36 240.37 241.18 120.19 242.11 119.25 240.89 119.25 240.89 0 361.36 0 361.36 0 361.36 0 481.83 0 481.83 119.25 480.61 119.25 481.55 120.19"/>
      <polygon class="cls-1" points="720.12 120.19 599.94 240.37 479.75 120.19 480.69 119.25 479.47 119.25 479.47 0 599.94 0 599.94 0 599.94 0 720.41 0 720.41 119.25 719.19 119.25 720.12 120.19"/>
      <polygon class="cls-1" points="961.01 120.19 840.83 240.37 720.64 120.19 721.58 119.25 720.36 119.25 720.36 0 840.83 0 840.83 0 840.83 0 961.3 0 961.3 119.25 960.08 119.25 961.01 120.19"/>
      <polygon class="cls-1" points="1199.59 120.19 1079.4 240.37 959.22 120.19 960.15 119.25 958.93 119.25 958.93 0 1079.4 0 1079.4 0 1079.4 0 1199.88 0 1199.88 119.25 1198.66 119.25 1199.59 120.19"/>
      <polygon class="cls-1" points="1440.48 120.19 1320.3 240.37 1200.11 120.19 1201.04 119.25 1199.82 119.25 1199.82 0 1320.3 0 1320.3 0 1320.3 0 1440.77 0 1440.77 119.25 1439.55 119.25 1440.48 120.19"/>
      <polygon class="cls-1" points="1679.06 120.19 1558.87 240.37 1438.69 120.19 1439.62 119.25 1438.4 119.25 1438.4 0 1558.87 0 1558.87 0 1558.87 0 1679.34 0 1679.34 119.25 1678.12 119.25 1679.06 120.19"/>
      <polygon class="cls-1" points="1919.95 120.19 1799.76 240.37 1679.58 120.19 1680.51 119.25 1679.29 119.25 1679.29 0 1799.76 0 1799.76 0 1799.76 0 1920.23 0 1920.23 119.25 1919.01 119.25 1919.95 120.19"/>
    </g>
  </g>
</svg>