<?xml version="1.0" encoding="UTF-8"?>
<svg id="Layer_2" data-name="Layer 2" xmlns="http://www.w3.org/2000/svg" viewBox="0 0 1932.51 1283.16">
  <defs>
    <style>
      .cls-1 {
        fill: #e0e0e0;
      }
    </style>
  </defs>
  <g id="Layer_1-2" data-name="Layer 1">
    <g>
      <polygon class="cls-1" points="641.58 962.75 321.17 642.34 .76 962.75 3.25 965.24 0 965.24 0 1283.16 321.17 1283.16 321.17 1283.16 321.17 1283.16 642.34 1283.16 642.34 965.24 639.09 965.24 641.58 962.75"/>
      <rect class="cls-1" x="94.61" y="93.85" width="453.13" height="453.13" transform="translate(-132.49 320.95) rotate(-45)"/>
      <polygon class="cls-1" points="1286.48 962.75 966.07 642.34 645.66 962.75 648.15 965.24 644.9 965.24 644.9 1283.16 966.07 1283.16 966.07 1283.16 966.07 1283.16 1287.24 1283.16 1287.24 965.24 1283.99 965.24 1286.48 962.75"/>
      <rect class="cls-1" x="739.5" y="93.85" width="453.13" height="453.13" transform="translate(56.39 776.96) rotate(-45)"/>
      <polygon class="cls-1" points="1931.75 962.75 1611.34 642.34 1290.93 962.75 1293.42 965.24 1290.17 965.24 1290.17 1283.16 1611.34 1283.16 1611.34 1283.16 1611.34 1283.16 1932.51 1283.16 1932.51 965.24 1929.26 965.24 1931.75 962.75"/>
      <rect class="cls-1" x="1384.78" y="93.85" width="453.13" height="453.13" transform="translate(245.39 1233.24) rotate(-45)"/>
    </g>
  </g>
</svg>