<?xml version="1.0" encoding="UTF-8"?>
<svg id="Layer_2" data-name="Layer 2" xmlns="http://www.w3.org/2000/svg" viewBox="0 0 1919.85 1078.41">
  <defs>
    <style>
      .cls-1 {
        fill: #0029d6;
      }
    </style>
  </defs>
  <g id="Layer_1-2" data-name="Layer 1">
    <g>
      <g>
        <rect class="cls-1" x="336.29" y="123.01" width="75.72" height="75.72" transform="translate(-4.17 311.68) rotate(-45)"/>
        <polygon class="cls-1" points="320.35 160.87 266.81 107.33 213.28 160.87 213.69 161.29 213.15 161.29 213.15 214.41 266.81 214.41 266.81 214.41 266.81 214.41 320.48 214.41 320.48 161.29 319.94 161.29 320.35 160.87"/>
        <rect class="cls-1" x="228.96" y="15.68" width="75.72" height="75.72" transform="translate(40.29 204.35) rotate(-45)"/>
        <polygon class="cls-1" points="374.85 .7 374.15 0 373.44 .7 320.48 .7 320.48 53.83 320.9 53.83 374.15 107.08 427.4 53.83 427.81 53.83 427.81 .7 374.85 .7"/>
      </g>
      <g>
        <rect class="cls-1" x="123.14" y="123.01" width="75.72" height="75.72" transform="translate(-66.6 160.96) rotate(-45)"/>
        <polygon class="cls-1" points="107.21 160.87 53.67 107.33 .13 160.87 .54 161.29 0 161.29 0 214.41 53.67 214.41 53.67 214.41 53.67 214.41 107.33 214.41 107.33 161.29 106.79 161.29 107.21 160.87"/>
        <rect class="cls-1" x="15.81" y="15.68" width="75.72" height="75.72" transform="translate(-22.14 53.63) rotate(-45)"/>
        <polygon class="cls-1" points="161.7 .7 161 0 160.3 .7 107.33 .7 107.33 53.83 107.75 53.83 161 107.08 214.25 53.83 214.67 53.83 214.67 .7 161.7 .7"/>
      </g>
      <g>
        <rect class="cls-1" x="336.29" y="338.78" width="75.72" height="75.72" transform="translate(-156.74 374.88) rotate(-45)"/>
        <polygon class="cls-1" points="320.35 376.64 266.81 323.1 213.28 376.64 213.69 377.05 213.15 377.05 213.15 430.18 266.81 430.18 266.81 430.18 266.81 430.18 320.48 430.18 320.48 377.05 319.94 377.05 320.35 376.64"/>
        <rect class="cls-1" x="228.96" y="231.44" width="75.72" height="75.72" transform="translate(-112.28 267.54) rotate(-45)"/>
        <polygon class="cls-1" points="374.85 216.47 374.15 215.76 373.44 216.47 320.48 216.47 320.48 269.59 320.9 269.59 374.15 322.84 427.4 269.59 427.81 269.59 427.81 216.47 374.85 216.47"/>
      </g>
      <g>
        <rect class="cls-1" x="123.14" y="338.78" width="75.72" height="75.72" transform="translate(-219.17 224.16) rotate(-45)"/>
        <polygon class="cls-1" points="107.21 376.64 53.67 323.1 .13 376.64 .54 377.05 0 377.05 0 430.18 53.67 430.18 53.67 430.18 53.67 430.18 107.33 430.18 107.33 377.05 106.79 377.05 107.21 376.64"/>
        <rect class="cls-1" x="15.81" y="231.44" width="75.72" height="75.72" transform="translate(-174.71 116.82) rotate(-45)"/>
        <polygon class="cls-1" points="161.7 216.47 161 215.76 160.3 216.47 107.33 216.47 107.33 269.59 107.75 269.59 161 322.84 214.25 269.59 214.67 269.59 214.67 216.47 161.7 216.47"/>
      </g>
      <g>
        <rect class="cls-1" x="762.59" y="123.01" width="75.72" height="75.72" transform="translate(120.69 613.12) rotate(-45)"/>
        <polygon class="cls-1" points="746.65 160.87 693.11 107.33 639.57 160.87 639.99 161.29 639.44 161.29 639.44 214.41 693.11 214.41 693.11 214.41 693.11 214.41 746.78 214.41 746.78 161.29 746.23 161.29 746.65 160.87"/>
        <rect class="cls-1" x="655.25" y="15.68" width="75.72" height="75.72" transform="translate(165.15 505.78) rotate(-45)"/>
        <polygon class="cls-1" points="801.15 .7 800.44 0 799.74 .7 746.78 .7 746.78 53.83 747.19 53.83 800.44 107.08 853.7 53.83 854.11 53.83 854.11 .7 801.15 .7"/>
      </g>
      <g>
        <rect class="cls-1" x="549.44" y="123.01" width="75.72" height="75.72" transform="translate(58.26 462.4) rotate(-45)"/>
        <polygon class="cls-1" points="533.5 160.87 479.96 107.33 426.42 160.87 426.84 161.29 426.3 161.29 426.3 214.41 479.96 214.41 479.96 214.41 479.96 214.41 533.63 214.41 533.63 161.29 533.09 161.29 533.5 160.87"/>
        <rect class="cls-1" x="442.11" y="15.68" width="75.72" height="75.72" transform="translate(102.72 355.07) rotate(-45)"/>
        <polygon class="cls-1" points="588 .7 587.3 0 586.59 .7 533.63 .7 533.63 53.83 534.05 53.83 587.3 107.08 640.55 53.83 640.96 53.83 640.96 .7 588 .7"/>
      </g>
      <g>
        <rect class="cls-1" x="762.59" y="338.78" width="75.72" height="75.72" transform="translate(-31.88 676.31) rotate(-45)"/>
        <polygon class="cls-1" points="746.65 376.64 693.11 323.1 639.57 376.64 639.99 377.05 639.44 377.05 639.44 430.18 693.11 430.18 693.11 430.18 693.11 430.18 746.78 430.18 746.78 377.05 746.23 377.05 746.65 376.64"/>
        <rect class="cls-1" x="655.25" y="231.44" width="75.72" height="75.72" transform="translate(12.58 568.98) rotate(-45)"/>
        <polygon class="cls-1" points="801.15 216.47 800.44 215.76 799.74 216.47 746.78 216.47 746.78 269.59 747.19 269.59 800.44 322.84 853.7 269.59 854.11 269.59 854.11 216.47 801.15 216.47"/>
      </g>
      <g>
        <rect class="cls-1" x="549.44" y="338.78" width="75.72" height="75.72" transform="translate(-94.31 525.6) rotate(-45)"/>
        <polygon class="cls-1" points="533.5 376.64 479.96 323.1 426.42 376.64 426.84 377.05 426.3 377.05 426.3 430.18 479.96 430.18 479.96 430.18 479.96 430.18 533.63 430.18 533.63 377.05 533.09 377.05 533.5 376.64"/>
        <rect class="cls-1" x="442.11" y="231.44" width="75.72" height="75.72" transform="translate(-49.85 418.26) rotate(-45)"/>
        <polygon class="cls-1" points="588 216.47 587.3 215.76 586.59 216.47 533.63 216.47 533.63 269.59 534.05 269.59 587.3 322.84 640.55 269.59 640.96 269.59 640.96 216.47 588 216.47"/>
      </g>
      <g>
        <rect class="cls-1" x="1188.88" y="123.01" width="75.72" height="75.72" transform="translate(245.55 914.56) rotate(-45)"/>
        <polygon class="cls-1" points="1172.95 160.87 1119.41 107.33 1065.87 160.87 1066.28 161.29 1065.74 161.29 1065.74 214.41 1119.41 214.41 1119.41 214.41 1119.41 214.41 1173.07 214.41 1173.07 161.29 1172.53 161.29 1172.95 160.87"/>
        <rect class="cls-1" x="1081.55" y="15.68" width="75.72" height="75.72" transform="translate(290.01 807.22) rotate(-45)"/>
        <polygon class="cls-1" points="1227.45 .7 1226.74 0 1226.04 .7 1173.07 .7 1173.07 53.83 1173.49 53.83 1226.74 107.08 1279.99 53.83 1280.41 53.83 1280.41 .7 1227.45 .7"/>
      </g>
      <g>
        <rect class="cls-1" x="975.73" y="123.01" width="75.72" height="75.72" transform="translate(183.12 763.84) rotate(-45)"/>
        <polygon class="cls-1" points="959.8 160.87 906.26 107.33 852.72 160.87 853.14 161.29 852.59 161.29 852.59 214.41 906.26 214.41 906.26 214.41 906.26 214.41 959.93 214.41 959.93 161.29 959.38 161.29 959.8 160.87"/>
        <rect class="cls-1" x="868.4" y="15.68" width="75.72" height="75.72" transform="translate(227.58 656.5) rotate(-45)"/>
        <polygon class="cls-1" points="1014.3 .7 1013.59 0 1012.89 .7 959.93 .7 959.93 53.83 960.34 53.83 1013.59 107.08 1066.84 53.83 1067.26 53.83 1067.26 .7 1014.3 .7"/>
      </g>
      <g>
        <rect class="cls-1" x="1188.88" y="338.78" width="75.72" height="75.72" transform="translate(92.98 977.75) rotate(-45)"/>
        <polygon class="cls-1" points="1172.95 376.64 1119.41 323.1 1065.87 376.64 1066.28 377.05 1065.74 377.05 1065.74 430.18 1119.41 430.18 1119.41 430.18 1119.41 430.18 1173.07 430.18 1173.07 377.05 1172.53 377.05 1172.95 376.64"/>
        <rect class="cls-1" x="1081.55" y="231.44" width="75.72" height="75.72" transform="translate(137.44 870.42) rotate(-45)"/>
        <polygon class="cls-1" points="1227.45 216.47 1226.74 215.76 1226.04 216.47 1173.07 216.47 1173.07 269.59 1173.49 269.59 1226.74 322.84 1279.99 269.59 1280.41 269.59 1280.41 216.47 1227.45 216.47"/>
      </g>
      <g>
        <rect class="cls-1" x="975.73" y="338.78" width="75.72" height="75.72" transform="translate(30.55 827.03) rotate(-45)"/>
        <polygon class="cls-1" points="959.8 376.64 906.26 323.1 852.72 376.64 853.14 377.05 852.59 377.05 852.59 430.18 906.26 430.18 906.26 430.18 906.26 430.18 959.93 430.18 959.93 377.05 959.38 377.05 959.8 376.64"/>
        <rect class="cls-1" x="868.4" y="231.44" width="75.72" height="75.72" transform="translate(75.01 719.7) rotate(-45)"/>
        <polygon class="cls-1" points="1014.3 216.47 1013.59 215.76 1012.89 216.47 959.93 216.47 959.93 269.59 960.34 269.59 1013.59 322.84 1066.84 269.59 1067.26 269.59 1067.26 216.47 1014.3 216.47"/>
      </g>
      <g>
        <rect class="cls-1" x="1615.18" y="123.01" width="75.72" height="75.72" transform="translate(370.41 1215.99) rotate(-45)"/>
        <polygon class="cls-1" points="1599.24 160.87 1545.7 107.33 1492.17 160.87 1492.58 161.29 1492.04 161.29 1492.04 214.41 1545.7 214.41 1545.7 214.41 1545.7 214.41 1599.37 214.41 1599.37 161.29 1598.83 161.29 1599.24 160.87"/>
        <rect class="cls-1" x="1507.85" y="15.68" width="75.72" height="75.72" transform="translate(414.87 1108.66) rotate(-45)"/>
        <polygon class="cls-1" points="1653.74 .7 1653.04 0 1652.33 .7 1599.37 .7 1599.37 53.83 1599.79 53.83 1653.04 107.08 1706.29 53.83 1706.7 53.83 1706.7 .7 1653.74 .7"/>
      </g>
      <g>
        <rect class="cls-1" x="1402.03" y="123.01" width="75.72" height="75.72" transform="translate(307.98 1065.27) rotate(-45)"/>
        <polygon class="cls-1" points="1386.1 160.87 1332.56 107.33 1279.02 160.87 1279.43 161.29 1278.89 161.29 1278.89 214.41 1332.56 214.41 1332.56 214.41 1332.56 214.41 1386.22 214.41 1386.22 161.29 1385.68 161.29 1386.1 160.87"/>
        <rect class="cls-1" x="1294.7" y="15.68" width="75.72" height="75.72" transform="translate(352.44 957.94) rotate(-45)"/>
        <polygon class="cls-1" points="1440.59 .7 1439.89 0 1439.18 .7 1386.22 .7 1386.22 53.83 1386.64 53.83 1439.89 107.08 1493.14 53.83 1493.56 53.83 1493.56 .7 1440.59 .7"/>
      </g>
      <g>
        <rect class="cls-1" x="1615.18" y="338.78" width="75.72" height="75.72" transform="translate(217.84 1279.19) rotate(-45)"/>
        <polygon class="cls-1" points="1599.24 376.64 1545.7 323.1 1492.17 376.64 1492.58 377.05 1492.04 377.05 1492.04 430.18 1545.7 430.18 1545.7 430.18 1545.7 430.18 1599.37 430.18 1599.37 377.05 1598.83 377.05 1599.24 376.64"/>
        <rect class="cls-1" x="1507.85" y="231.44" width="75.72" height="75.72" transform="translate(262.3 1171.85) rotate(-45)"/>
        <polygon class="cls-1" points="1653.74 216.47 1653.04 215.76 1652.33 216.47 1599.37 216.47 1599.37 269.59 1599.79 269.59 1653.04 322.84 1706.29 269.59 1706.7 269.59 1706.7 216.47 1653.74 216.47"/>
      </g>
      <g>
        <rect class="cls-1" x="1402.03" y="338.78" width="75.72" height="75.72" transform="translate(155.41 1128.47) rotate(-45)"/>
        <polygon class="cls-1" points="1386.1 376.64 1332.56 323.1 1279.02 376.64 1279.43 377.05 1278.89 377.05 1278.89 430.18 1332.56 430.18 1332.56 430.18 1332.56 430.18 1386.22 430.18 1386.22 377.05 1385.68 377.05 1386.1 376.64"/>
        <rect class="cls-1" x="1294.7" y="231.44" width="75.72" height="75.72" transform="translate(199.87 1021.14) rotate(-45)"/>
        <polygon class="cls-1" points="1440.59 216.47 1439.89 215.76 1439.18 216.47 1386.22 216.47 1386.22 269.59 1386.64 269.59 1439.89 322.84 1493.14 269.59 1493.56 269.59 1493.56 216.47 1440.59 216.47"/>
      </g>
      <g>
        <rect class="cls-1" x="1828.33" y="123.01" width="75.72" height="75.72" transform="translate(432.84 1366.71) rotate(-45)"/>
        <polygon class="cls-1" points="1812.39 160.87 1758.85 107.33 1705.31 160.87 1705.73 161.29 1705.19 161.29 1705.19 214.41 1758.85 214.41 1758.85 214.41 1758.85 214.41 1812.52 214.41 1812.52 161.29 1811.98 161.29 1812.39 160.87"/>
        <rect class="cls-1" x="1720.99" y="15.68" width="75.72" height="75.72" transform="translate(477.3 1259.38) rotate(-45)"/>
        <polygon class="cls-1" points="1866.89 .7 1866.19 0 1865.48 .7 1812.52 .7 1812.52 53.83 1812.94 53.83 1866.19 107.08 1919.44 53.83 1919.85 53.83 1919.85 .7 1866.89 .7"/>
      </g>
      <g>
        <rect class="cls-1" x="1828.33" y="338.78" width="75.72" height="75.72" transform="translate(280.27 1429.91) rotate(-45)"/>
        <polygon class="cls-1" points="1812.39 376.64 1758.85 323.1 1705.31 376.64 1705.73 377.05 1705.19 377.05 1705.19 430.18 1758.85 430.18 1758.85 430.18 1758.85 430.18 1812.52 430.18 1812.52 377.05 1811.98 377.05 1812.39 376.64"/>
        <rect class="cls-1" x="1720.99" y="231.44" width="75.72" height="75.72" transform="translate(324.73 1322.57) rotate(-45)"/>
        <polygon class="cls-1" points="1866.89 216.47 1866.19 215.76 1865.48 216.47 1812.52 216.47 1812.52 269.59 1812.94 269.59 1866.19 322.84 1919.44 269.59 1919.85 269.59 1919.85 216.47 1866.89 216.47"/>
      </g>
      <g>
        <rect class="cls-1" x="336.29" y="555.01" width="75.72" height="75.72" transform="translate(-309.64 438.21) rotate(-45)"/>
        <polygon class="cls-1" points="320.35 592.87 266.81 539.33 213.28 592.87 213.69 593.29 213.15 593.29 213.15 646.41 266.81 646.41 266.81 646.41 266.81 646.41 320.48 646.41 320.48 593.29 319.94 593.29 320.35 592.87"/>
        <rect class="cls-1" x="228.96" y="447.68" width="75.72" height="75.72" transform="translate(-265.18 330.88) rotate(-45)"/>
        <polygon class="cls-1" points="374.85 432.7 374.15 432 373.44 432.7 320.48 432.7 320.48 485.83 320.9 485.83 374.15 539.08 427.4 485.83 427.81 485.83 427.81 432.7 374.85 432.7"/>
      </g>
      <g>
        <rect class="cls-1" x="123.14" y="555.01" width="75.72" height="75.72" transform="translate(-372.07 287.49) rotate(-45)"/>
        <polygon class="cls-1" points="107.21 592.87 53.67 539.33 .13 592.87 .54 593.29 0 593.29 0 646.41 53.67 646.41 53.67 646.41 53.67 646.41 107.33 646.41 107.33 593.29 106.79 593.29 107.21 592.87"/>
        <rect class="cls-1" x="15.81" y="447.68" width="75.72" height="75.72" transform="translate(-327.61 180.16) rotate(-45)"/>
        <polygon class="cls-1" points="161.7 432.7 161 432 160.3 432.7 107.33 432.7 107.33 485.83 107.75 485.83 161 539.08 214.25 485.83 214.67 485.83 214.67 432.7 161.7 432.7"/>
      </g>
      <g>
        <rect class="cls-1" x="336.29" y="770.78" width="75.72" height="75.72" transform="translate(-462.21 501.41) rotate(-45)"/>
        <polygon class="cls-1" points="320.35 808.64 266.81 755.1 213.28 808.64 213.69 809.05 213.15 809.05 213.15 862.18 266.81 862.18 266.81 862.18 266.81 862.18 320.48 862.18 320.48 809.05 319.94 809.05 320.35 808.64"/>
        <rect class="cls-1" x="228.96" y="663.44" width="75.72" height="75.72" transform="translate(-417.75 394.07) rotate(-45)"/>
        <polygon class="cls-1" points="374.85 648.47 374.15 647.76 373.44 648.47 320.48 648.47 320.48 701.59 320.9 701.59 374.15 754.84 427.4 701.59 427.81 701.59 427.81 648.47 374.85 648.47"/>
      </g>
      <g>
        <rect class="cls-1" x="123.14" y="770.78" width="75.72" height="75.72" transform="translate(-524.64 350.69) rotate(-45)"/>
        <polygon class="cls-1" points="107.21 808.64 53.67 755.1 .13 808.64 .54 809.05 0 809.05 0 862.18 53.67 862.18 53.67 862.18 53.67 862.18 107.33 862.18 107.33 809.05 106.79 809.05 107.21 808.64"/>
        <rect class="cls-1" x="15.81" y="663.44" width="75.72" height="75.72" transform="translate(-480.18 243.35) rotate(-45)"/>
        <polygon class="cls-1" points="161.7 648.47 161 647.76 160.3 648.47 107.33 648.47 107.33 701.59 107.75 701.59 161 754.84 214.25 701.59 214.67 701.59 214.67 648.47 161.7 648.47"/>
      </g>
      <g>
        <rect class="cls-1" x="762.59" y="555.01" width="75.72" height="75.72" transform="translate(-184.78 739.65) rotate(-45)"/>
        <polygon class="cls-1" points="746.65 592.87 693.11 539.33 639.57 592.87 639.99 593.29 639.44 593.29 639.44 646.41 693.11 646.41 693.11 646.41 693.11 646.41 746.78 646.41 746.78 593.29 746.23 593.29 746.65 592.87"/>
        <rect class="cls-1" x="655.25" y="447.68" width="75.72" height="75.72" transform="translate(-140.32 632.31) rotate(-45)"/>
        <polygon class="cls-1" points="801.15 432.7 800.44 432 799.74 432.7 746.78 432.7 746.78 485.83 747.19 485.83 800.44 539.08 853.7 485.83 854.11 485.83 854.11 432.7 801.15 432.7"/>
      </g>
      <g>
        <rect class="cls-1" x="549.44" y="555.01" width="75.72" height="75.72" transform="translate(-247.21 588.93) rotate(-45)"/>
        <polygon class="cls-1" points="533.5 592.87 479.96 539.33 426.42 592.87 426.84 593.29 426.3 593.29 426.3 646.41 479.96 646.41 479.96 646.41 479.96 646.41 533.63 646.41 533.63 593.29 533.09 593.29 533.5 592.87"/>
        <rect class="cls-1" x="442.11" y="447.68" width="75.72" height="75.72" transform="translate(-202.75 481.6) rotate(-45)"/>
        <polygon class="cls-1" points="588 432.7 587.3 432 586.59 432.7 533.63 432.7 533.63 485.83 534.05 485.83 587.3 539.08 640.55 485.83 640.96 485.83 640.96 432.7 588 432.7"/>
      </g>
      <g>
        <rect class="cls-1" x="762.59" y="770.78" width="75.72" height="75.72" transform="translate(-337.35 802.84) rotate(-45)"/>
        <polygon class="cls-1" points="746.65 808.64 693.11 755.1 639.57 808.64 639.99 809.05 639.44 809.05 639.44 862.18 693.11 862.18 693.11 862.18 693.11 862.18 746.78 862.18 746.78 809.05 746.23 809.05 746.65 808.64"/>
        <rect class="cls-1" x="655.25" y="663.44" width="75.72" height="75.72" transform="translate(-292.89 695.51) rotate(-45)"/>
        <polygon class="cls-1" points="801.15 648.47 800.44 647.76 799.74 648.47 746.78 648.47 746.78 701.59 747.19 701.59 800.44 754.84 853.7 701.59 854.11 701.59 854.11 648.47 801.15 648.47"/>
      </g>
      <g>
        <rect class="cls-1" x="549.44" y="770.78" width="75.72" height="75.72" transform="translate(-399.78 652.13) rotate(-45)"/>
        <polygon class="cls-1" points="533.5 808.64 479.96 755.1 426.42 808.64 426.84 809.05 426.3 809.05 426.3 862.18 479.96 862.18 479.96 862.18 479.96 862.18 533.63 862.18 533.63 809.05 533.09 809.05 533.5 808.64"/>
        <rect class="cls-1" x="442.11" y="663.44" width="75.72" height="75.72" transform="translate(-355.32 544.79) rotate(-45)"/>
        <polygon class="cls-1" points="588 648.47 587.3 647.76 586.59 648.47 533.63 648.47 533.63 701.59 534.05 701.59 587.3 754.84 640.55 701.59 640.96 701.59 640.96 648.47 588 648.47"/>
      </g>
      <g>
        <rect class="cls-1" x="1188.88" y="555.01" width="75.72" height="75.72" transform="translate(-59.92 1041.09) rotate(-45)"/>
        <polygon class="cls-1" points="1172.95 592.87 1119.41 539.33 1065.87 592.87 1066.28 593.29 1065.74 593.29 1065.74 646.41 1119.41 646.41 1119.41 646.41 1119.41 646.41 1173.07 646.41 1173.07 593.29 1172.53 593.29 1172.95 592.87"/>
        <rect class="cls-1" x="1081.55" y="447.68" width="75.72" height="75.72" transform="translate(-15.46 933.75) rotate(-45)"/>
        <polygon class="cls-1" points="1227.45 432.7 1226.74 432 1226.04 432.7 1173.07 432.7 1173.07 485.83 1173.49 485.83 1226.74 539.08 1279.99 485.83 1280.41 485.83 1280.41 432.7 1227.45 432.7"/>
      </g>
      <g>
        <rect class="cls-1" x="975.73" y="555.01" width="75.72" height="75.72" transform="translate(-122.35 890.37) rotate(-45)"/>
        <polygon class="cls-1" points="959.8 592.87 906.26 539.33 852.72 592.87 853.14 593.29 852.59 593.29 852.59 646.41 906.26 646.41 906.26 646.41 906.26 646.41 959.93 646.41 959.93 593.29 959.38 593.29 959.8 592.87"/>
        <rect class="cls-1" x="868.4" y="447.68" width="75.72" height="75.72" transform="translate(-77.89 783.03) rotate(-45)"/>
        <polygon class="cls-1" points="1014.3 432.7 1013.59 432 1012.89 432.7 959.93 432.7 959.93 485.83 960.34 485.83 1013.59 539.08 1066.84 485.83 1067.26 485.83 1067.26 432.7 1014.3 432.7"/>
      </g>
      <g>
        <rect class="cls-1" x="1188.88" y="770.78" width="75.72" height="75.72" transform="translate(-212.49 1104.28) rotate(-45)"/>
        <polygon class="cls-1" points="1172.95 808.64 1119.41 755.1 1065.87 808.64 1066.28 809.05 1065.74 809.05 1065.74 862.18 1119.41 862.18 1119.41 862.18 1119.41 862.18 1173.07 862.18 1173.07 809.05 1172.53 809.05 1172.95 808.64"/>
        <rect class="cls-1" x="1081.55" y="663.44" width="75.72" height="75.72" transform="translate(-168.03 996.95) rotate(-45)"/>
        <polygon class="cls-1" points="1227.45 648.47 1226.74 647.76 1226.04 648.47 1173.07 648.47 1173.07 701.59 1173.49 701.59 1226.74 754.84 1279.99 701.59 1280.41 701.59 1280.41 648.47 1227.45 648.47"/>
      </g>
      <g>
        <rect class="cls-1" x="975.73" y="770.78" width="75.72" height="75.72" transform="translate(-274.92 953.56) rotate(-45)"/>
        <polygon class="cls-1" points="959.8 808.64 906.26 755.1 852.72 808.64 853.14 809.05 852.59 809.05 852.59 862.18 906.26 862.18 906.26 862.18 906.26 862.18 959.93 862.18 959.93 809.05 959.38 809.05 959.8 808.64"/>
        <rect class="cls-1" x="868.4" y="663.44" width="75.72" height="75.72" transform="translate(-230.46 846.23) rotate(-45)"/>
        <polygon class="cls-1" points="1014.3 648.47 1013.59 647.76 1012.89 648.47 959.93 648.47 959.93 701.59 960.34 701.59 1013.59 754.84 1066.84 701.59 1067.26 701.59 1067.26 648.47 1014.3 648.47"/>
      </g>
      <g>
        <rect class="cls-1" x="1615.18" y="555.01" width="75.72" height="75.72" transform="translate(64.94 1342.52) rotate(-45)"/>
        <polygon class="cls-1" points="1599.24 592.87 1545.7 539.33 1492.17 592.87 1492.58 593.29 1492.04 593.29 1492.04 646.41 1545.7 646.41 1545.7 646.41 1545.7 646.41 1599.37 646.41 1599.37 593.29 1598.83 593.29 1599.24 592.87"/>
        <rect class="cls-1" x="1507.85" y="447.68" width="75.72" height="75.72" transform="translate(109.4 1235.19) rotate(-45)"/>
        <polygon class="cls-1" points="1653.74 432.7 1653.04 432 1652.33 432.7 1599.37 432.7 1599.37 485.83 1599.79 485.83 1653.04 539.08 1706.29 485.83 1706.7 485.83 1706.7 432.7 1653.74 432.7"/>
      </g>
      <g>
        <rect class="cls-1" x="1402.03" y="555.01" width="75.72" height="75.72" transform="translate(2.51 1191.8) rotate(-45)"/>
        <polygon class="cls-1" points="1386.1 592.87 1332.56 539.33 1279.02 592.87 1279.43 593.29 1278.89 593.29 1278.89 646.41 1332.56 646.41 1332.56 646.41 1332.56 646.41 1386.22 646.41 1386.22 593.29 1385.68 593.29 1386.1 592.87"/>
        <rect class="cls-1" x="1294.7" y="447.68" width="75.72" height="75.72" transform="translate(46.97 1084.47) rotate(-45)"/>
        <polygon class="cls-1" points="1440.59 432.7 1439.89 432 1439.18 432.7 1386.22 432.7 1386.22 485.83 1386.64 485.83 1439.89 539.08 1493.14 485.83 1493.56 485.83 1493.56 432.7 1440.59 432.7"/>
      </g>
      <g>
        <rect class="cls-1" x="1615.18" y="770.78" width="75.72" height="75.72" transform="translate(-87.63 1405.72) rotate(-45)"/>
        <polygon class="cls-1" points="1599.24 808.64 1545.7 755.1 1492.17 808.64 1492.58 809.05 1492.04 809.05 1492.04 862.18 1545.7 862.18 1545.7 862.18 1545.7 862.18 1599.37 862.18 1599.37 809.05 1598.83 809.05 1599.24 808.64"/>
        <rect class="cls-1" x="1507.85" y="663.44" width="75.72" height="75.72" transform="translate(-43.17 1298.38) rotate(-45)"/>
        <polygon class="cls-1" points="1653.74 648.47 1653.04 647.76 1652.33 648.47 1599.37 648.47 1599.37 701.59 1599.79 701.59 1653.04 754.84 1706.29 701.59 1706.7 701.59 1706.7 648.47 1653.74 648.47"/>
      </g>
      <g>
        <rect class="cls-1" x="1402.03" y="770.78" width="75.72" height="75.72" transform="translate(-150.06 1255) rotate(-45)"/>
        <polygon class="cls-1" points="1386.1 808.64 1332.56 755.1 1279.02 808.64 1279.43 809.05 1278.89 809.05 1278.89 862.18 1332.56 862.18 1332.56 862.18 1332.56 862.18 1386.22 862.18 1386.22 809.05 1385.68 809.05 1386.1 808.64"/>
        <rect class="cls-1" x="1294.7" y="663.44" width="75.72" height="75.72" transform="translate(-105.6 1147.67) rotate(-45)"/>
        <polygon class="cls-1" points="1440.59 648.47 1439.89 647.76 1439.18 648.47 1386.22 648.47 1386.22 701.59 1386.64 701.59 1439.89 754.84 1493.14 701.59 1493.56 701.59 1493.56 648.47 1440.59 648.47"/>
      </g>
      <g>
        <rect class="cls-1" x="1828.33" y="555.01" width="75.72" height="75.72" transform="translate(127.37 1493.24) rotate(-45)"/>
        <polygon class="cls-1" points="1812.39 592.87 1758.85 539.33 1705.31 592.87 1705.73 593.29 1705.19 593.29 1705.19 646.41 1758.85 646.41 1758.85 646.41 1758.85 646.41 1812.52 646.41 1812.52 593.29 1811.98 593.29 1812.39 592.87"/>
        <rect class="cls-1" x="1720.99" y="447.68" width="75.72" height="75.72" transform="translate(171.83 1385.91) rotate(-45)"/>
        <polygon class="cls-1" points="1866.89 432.7 1866.19 432 1865.48 432.7 1812.52 432.7 1812.52 485.83 1812.94 485.83 1866.19 539.08 1919.44 485.83 1919.85 485.83 1919.85 432.7 1866.89 432.7"/>
      </g>
      <g>
        <rect class="cls-1" x="1828.33" y="770.78" width="75.72" height="75.72" transform="translate(-25.2 1556.44) rotate(-45)"/>
        <polygon class="cls-1" points="1812.39 808.64 1758.85 755.1 1705.31 808.64 1705.73 809.05 1705.19 809.05 1705.19 862.18 1758.85 862.18 1758.85 862.18 1758.85 862.18 1812.52 862.18 1812.52 809.05 1811.98 809.05 1812.39 808.64"/>
        <rect class="cls-1" x="1720.99" y="663.44" width="75.72" height="75.72" transform="translate(19.26 1449.1) rotate(-45)"/>
        <polygon class="cls-1" points="1866.89 648.47 1866.19 647.76 1865.48 648.47 1812.52 648.47 1812.52 701.59 1812.94 701.59 1866.19 754.84 1919.44 701.59 1919.85 701.59 1919.85 648.47 1866.89 648.47"/>
      </g>
      <g>
        <rect class="cls-1" x="336.29" y="987.01" width="75.72" height="75.72" transform="translate(-615.11 564.74) rotate(-45)"/>
        <polygon class="cls-1" points="320.35 1024.87 266.81 971.33 213.28 1024.87 213.69 1025.29 213.15 1025.29 213.15 1078.41 266.81 1078.41 266.81 1078.41 266.81 1078.41 320.48 1078.41 320.48 1025.29 319.94 1025.29 320.35 1024.87"/>
        <rect class="cls-1" x="228.96" y="879.68" width="75.72" height="75.72" transform="translate(-570.65 457.41) rotate(-45)"/>
        <polygon class="cls-1" points="374.85 864.7 374.15 864 373.44 864.7 320.48 864.7 320.48 917.83 320.9 917.83 374.15 971.08 427.4 917.83 427.81 917.83 427.81 864.7 374.85 864.7"/>
      </g>
      <g>
        <rect class="cls-1" x="123.14" y="987.01" width="75.72" height="75.72" transform="translate(-677.54 414.02) rotate(-45)"/>
        <polygon class="cls-1" points="107.21 1024.87 53.67 971.33 .13 1024.87 .54 1025.29 0 1025.29 0 1078.41 53.67 1078.41 53.67 1078.41 53.67 1078.41 107.33 1078.41 107.33 1025.29 106.79 1025.29 107.21 1024.87"/>
        <rect class="cls-1" x="15.81" y="879.68" width="75.72" height="75.72" transform="translate(-633.08 306.69) rotate(-45)"/>
        <polygon class="cls-1" points="161.7 864.7 161 864 160.3 864.7 107.33 864.7 107.33 917.83 107.75 917.83 161 971.08 214.25 917.83 214.67 917.83 214.67 864.7 161.7 864.7"/>
      </g>
      <g>
        <rect class="cls-1" x="762.59" y="987.01" width="75.72" height="75.72" transform="translate(-490.25 866.18) rotate(-45)"/>
        <polygon class="cls-1" points="746.65 1024.87 693.11 971.33 639.57 1024.87 639.99 1025.29 639.44 1025.29 639.44 1078.41 693.11 1078.41 693.11 1078.41 693.11 1078.41 746.78 1078.41 746.78 1025.29 746.23 1025.29 746.65 1024.87"/>
        <rect class="cls-1" x="655.25" y="879.68" width="75.72" height="75.72" transform="translate(-445.79 758.84) rotate(-45)"/>
        <polygon class="cls-1" points="801.15 864.7 800.44 864 799.74 864.7 746.78 864.7 746.78 917.83 747.19 917.83 800.44 971.08 853.7 917.83 854.11 917.83 854.11 864.7 801.15 864.7"/>
      </g>
      <g>
        <rect class="cls-1" x="549.44" y="987.01" width="75.72" height="75.72" transform="translate(-552.68 715.46) rotate(-45)"/>
        <polygon class="cls-1" points="533.5 1024.87 479.96 971.33 426.42 1024.87 426.84 1025.29 426.3 1025.29 426.3 1078.41 479.96 1078.41 479.96 1078.41 479.96 1078.41 533.63 1078.41 533.63 1025.29 533.09 1025.29 533.5 1024.87"/>
        <rect class="cls-1" x="442.11" y="879.68" width="75.72" height="75.72" transform="translate(-508.22 608.13) rotate(-45)"/>
        <polygon class="cls-1" points="588 864.7 587.3 864 586.59 864.7 533.63 864.7 533.63 917.83 534.05 917.83 587.3 971.08 640.55 917.83 640.96 917.83 640.96 864.7 588 864.7"/>
      </g>
      <g>
        <rect class="cls-1" x="1188.88" y="987.01" width="75.72" height="75.72" transform="translate(-365.39 1167.62) rotate(-45)"/>
        <polygon class="cls-1" points="1172.95 1024.87 1119.41 971.33 1065.87 1024.87 1066.28 1025.29 1065.74 1025.29 1065.74 1078.41 1119.41 1078.41 1119.41 1078.41 1119.41 1078.41 1173.07 1078.41 1173.07 1025.29 1172.53 1025.29 1172.95 1024.87"/>
        <rect class="cls-1" x="1081.55" y="879.68" width="75.72" height="75.72" transform="translate(-320.93 1060.28) rotate(-45)"/>
        <polygon class="cls-1" points="1227.45 864.7 1226.74 864 1226.04 864.7 1173.07 864.7 1173.07 917.83 1173.49 917.83 1226.74 971.08 1279.99 917.83 1280.41 917.83 1280.41 864.7 1227.45 864.7"/>
      </g>
      <g>
        <rect class="cls-1" x="975.73" y="987.01" width="75.72" height="75.72" transform="translate(-427.82 1016.9) rotate(-45)"/>
        <polygon class="cls-1" points="959.8 1024.87 906.26 971.33 852.72 1024.87 853.14 1025.29 852.59 1025.29 852.59 1078.41 906.26 1078.41 906.26 1078.41 906.26 1078.41 959.93 1078.41 959.93 1025.29 959.38 1025.29 959.8 1024.87"/>
        <rect class="cls-1" x="868.4" y="879.68" width="75.72" height="75.72" transform="translate(-383.36 909.56) rotate(-45)"/>
        <polygon class="cls-1" points="1014.3 864.7 1013.59 864 1012.89 864.7 959.93 864.7 959.93 917.83 960.34 917.83 1013.59 971.08 1066.84 917.83 1067.26 917.83 1067.26 864.7 1014.3 864.7"/>
      </g>
      <g>
        <rect class="cls-1" x="1615.18" y="987.01" width="75.72" height="75.72" transform="translate(-240.53 1469.05) rotate(-45)"/>
        <polygon class="cls-1" points="1599.24 1024.87 1545.7 971.33 1492.17 1024.87 1492.58 1025.29 1492.04 1025.29 1492.04 1078.41 1545.7 1078.41 1545.7 1078.41 1545.7 1078.41 1599.37 1078.41 1599.37 1025.29 1598.83 1025.29 1599.24 1024.87"/>
        <rect class="cls-1" x="1507.85" y="879.68" width="75.72" height="75.72" transform="translate(-196.07 1361.72) rotate(-45)"/>
        <polygon class="cls-1" points="1653.74 864.7 1653.04 864 1652.33 864.7 1599.37 864.7 1599.37 917.83 1599.79 917.83 1653.04 971.08 1706.29 917.83 1706.7 917.83 1706.7 864.7 1653.74 864.7"/>
      </g>
      <g>
        <rect class="cls-1" x="1402.03" y="987.01" width="75.72" height="75.72" transform="translate(-302.96 1318.33) rotate(-45)"/>
        <polygon class="cls-1" points="1386.1 1024.87 1332.56 971.33 1279.02 1024.87 1279.43 1025.29 1278.89 1025.29 1278.89 1078.41 1332.56 1078.41 1332.56 1078.41 1332.56 1078.41 1386.22 1078.41 1386.22 1025.29 1385.68 1025.29 1386.1 1024.87"/>
        <rect class="cls-1" x="1294.7" y="879.68" width="75.72" height="75.72" transform="translate(-258.5 1211) rotate(-45)"/>
        <polygon class="cls-1" points="1440.59 864.7 1439.89 864 1439.18 864.7 1386.22 864.7 1386.22 917.83 1386.64 917.83 1439.89 971.08 1493.14 917.83 1493.56 917.83 1493.56 864.7 1440.59 864.7"/>
      </g>
      <g>
        <rect class="cls-1" x="1828.33" y="987.01" width="75.72" height="75.72" transform="translate(-178.1 1619.77) rotate(-45)"/>
        <polygon class="cls-1" points="1812.39 1024.87 1758.85 971.33 1705.31 1024.87 1705.73 1025.29 1705.19 1025.29 1705.19 1078.41 1758.85 1078.41 1758.85 1078.41 1758.85 1078.41 1812.52 1078.41 1812.52 1025.29 1811.98 1025.29 1812.39 1024.87"/>
        <rect class="cls-1" x="1720.99" y="879.68" width="75.72" height="75.72" transform="translate(-133.64 1512.44) rotate(-45)"/>
        <polygon class="cls-1" points="1866.89 864.7 1866.19 864 1865.48 864.7 1812.52 864.7 1812.52 917.83 1812.94 917.83 1866.19 971.08 1919.44 917.83 1919.85 917.83 1919.85 864.7 1866.89 864.7"/>
      </g>
    </g>
  </g>
</svg>