<?xml version="1.0" encoding="UTF-8"?>
<svg id="Layer_2" data-name="Layer 2" xmlns="http://www.w3.org/2000/svg" viewBox="0 0 574.34 469.11">
  <defs>
    <style>
      .cls-1 {
        fill: #0029d6;
      }
    </style>
  </defs>
  <g id="Layer_1-2" data-name="Layer 1">
    <g>
      <g>
        <polygon points="109.59 382.45 120.12 380 120.12 375.24 85.22 375.24 84.07 379.56 63.74 430.18 40.23 375.24 4.04 375.24 4.04 380 15.43 382.73 10.96 459.59 0 462.19 0 467.09 33.6 467.09 33.6 462.04 18.31 459.16 21.34 389.66 47.44 449.21 53.21 464.06 56.38 464.06 62.29 448.92 86.66 388.21 89.55 459.59 78.59 462.19 78.59 467.09 124.16 467.09 124.16 462.19 113.48 459.59 109.59 382.45"/>
        <path d="M189.33,458.44c-.77-.58-1.15-1.97-1.15-4.18v-35.62c0-7.98-2.12-13.65-6.34-17.02-4.23-3.36-10.05-5.05-17.45-5.05-5.96,0-11.54.94-16.73,2.81-5.19,1.87-9.35,4.23-12.47,7.07-3.12,2.84-4.69,5.65-4.69,8.44s.87,4.71,2.6,6.06c1.73,1.35,3.99,2.02,6.78,2.02,3.84,0,7.02-.58,9.52-1.73l.43-16.44c1.15-.96,2.88-1.44,5.19-1.44,3.56,0,6.22,1.35,8,4.04,1.78,2.69,2.81,5.91,3.1,9.66v10.81l-13.12,3.17c-8.36,2.02-14.52,4.54-18.46,7.57-3.94,3.03-5.91,7.33-5.91,12.91,0,5.19,1.75,9.42,5.26,12.69,3.51,3.27,7.91,4.9,13.19,4.9,4.9,0,8.87-1.25,11.9-3.75,3.03-2.5,5.46-5.09,7.28-7.79h.58c.29,4.14,1.49,7.04,3.61,8.72,2.11,1.68,5.09,2.52,8.94,2.52,2.79,0,5.65-.5,8.58-1.51,2.93-1.01,6.37-2.52,10.31-4.54v-3.46h-5.05c-1.83,0-3.13-.29-3.89-.86ZM166.12,453.83c-.96.96-2.04,1.78-3.24,2.45-1.2.67-2.52,1.01-3.97,1.01-2.88,0-5.17-.96-6.85-2.88-1.68-1.92-2.52-4.37-2.52-7.35,0-2.79.91-5.29,2.74-7.5,1.83-2.21,4.9-3.99,9.23-5.34l4.61-1.44v21.05Z"/>
        <path d="M261.72,458.44c-.77-.58-1.15-1.97-1.15-4.18v-35.62c0-7.98-2.12-13.65-6.34-17.02-4.23-3.36-10.05-5.05-17.45-5.05-5.96,0-11.54.94-16.73,2.81-5.19,1.87-9.35,4.23-12.47,7.07-3.12,2.84-4.69,5.65-4.69,8.44s.87,4.71,2.6,6.06c1.73,1.35,3.99,2.02,6.78,2.02,3.84,0,7.02-.58,9.52-1.73l.43-16.44c1.15-.96,2.88-1.44,5.19-1.44,3.56,0,6.22,1.35,8,4.04,1.78,2.69,2.81,5.91,3.1,9.66v10.81l-13.12,3.17c-8.36,2.02-14.52,4.54-18.46,7.57-3.94,3.03-5.91,7.33-5.91,12.91,0,5.19,1.75,9.42,5.26,12.69,3.51,3.27,7.91,4.9,13.19,4.9,4.9,0,8.87-1.25,11.9-3.75,3.03-2.5,5.46-5.09,7.28-7.79h.58c.29,4.14,1.49,7.04,3.61,8.72,2.11,1.68,5.09,2.52,8.94,2.52,2.79,0,5.65-.5,8.58-1.51,2.93-1.01,6.37-2.52,10.31-4.54v-3.46h-5.05c-1.83,0-3.13-.29-3.89-.86ZM238.5,453.83c-.96.96-2.04,1.78-3.24,2.45-1.2.67-2.52,1.01-3.97,1.01-2.88,0-5.17-.96-6.85-2.88-1.68-1.92-2.52-4.37-2.52-7.35,0-2.79.91-5.29,2.74-7.5,1.83-2.21,4.9-3.99,9.23-5.34l4.61-1.44v21.05Z"/>
        <path d="M319.47,458.3c-1.39.29-2.91.43-4.54.43-2.69,0-5.24-.6-7.64-1.8-2.4-1.2-4.04-3.44-4.9-6.7v-43.55h20.04v-7.93h-20.04v-17.3h-2.6l-19.32,16.87-10.24,3.46v4.76h10.09l-.43,42.97c-.1,6.15,1.37,10.94,4.4,14.35,3.03,3.41,7.76,5.12,14.2,5.12,5.67,0,10.55-.86,14.64-2.59,4.08-1.73,7.38-3.32,9.88-4.76l-.86-3.89c-.39.1-1.28.29-2.67.58Z"/>
        <path d="M384.15,401.05c-5.67-2.98-12.21-4.47-19.61-4.47-7.02,0-13.41,1.61-19.18,4.83-5.77,3.22-10.33,7.64-13.7,13.27-3.37,5.62-5.05,12.04-5.05,19.25,0,6.15,1.46,11.9,4.4,17.23,2.93,5.33,7.21,9.66,12.83,12.98,5.62,3.32,12.52,4.98,20.69,4.98,7.21,0,13.65-1.61,19.32-4.83,5.67-3.22,10.17-7.66,13.48-13.34,3.32-5.67,4.97-12.16,4.97-19.47,0-6.82-1.61-12.86-4.83-18.1-3.22-5.24-7.67-9.35-13.34-12.33ZM375.57,457.5c-1.97,4.38-4.88,6.56-8.72,6.56-3.46,0-6.42-1.85-8.87-5.55-2.45-3.7-4.35-8.48-5.7-14.35-1.35-5.86-2.02-12.11-2.02-18.75,0-3.56.34-7.16,1.01-10.81.67-3.65,1.87-6.73,3.6-9.23,1.73-2.5,4.13-3.75,7.21-3.75,3.27,0,6.13,1.71,8.58,5.12,2.45,3.41,4.37,7.98,5.77,13.7,1.39,5.72,2.09,12.04,2.09,18.96,0,7.69-.99,13.72-2.96,18.1Z"/>
        <path d="M480.62,397.01l-31.29,5.48v3.03l8.94,4.04v43.55c-1.25.86-2.67,1.61-4.25,2.23-1.59.63-3.39.94-5.41.94-4.13,0-7.02-1.15-8.65-3.46-1.64-2.31-2.45-5.43-2.45-9.37v-46l-30.86,5.48v3.03l8.36,4.04v38.07c0,5.29.96,9.47,2.88,12.55,1.92,3.08,4.42,5.26,7.5,6.56,3.08,1.3,6.34,1.95,9.81,1.95s6.63-.6,9.52-1.8c2.88-1.2,5.5-2.72,7.86-4.54,2.35-1.83,4.35-3.56,5.98-5.19l1.59,11.25,29.42-4.47v-3.89l-8.94-2.16v-61.29Z"/>
        <path d="M561.51,406.24l10.67-3.17v-4.33h-34.03v4.33l11.68,4.04-24.8,24.51,16.58,26.39c2.31,3.85,4.95,6.63,7.93,8.36,2.98,1.73,6.73,2.59,11.25,2.59,2.6,0,4.93-.31,6.99-.94,2.07-.63,4.25-1.51,6.56-2.67l-30.71-43.84,17.88-15.29Z"/>
        <polygon points="523.88 363.56 493.3 372.64 493.3 375.38 501.52 380.43 501.52 460.31 493.02 462.33 493.02 467.09 531.95 467.09 531.95 462.33 523.88 460.31 523.88 363.56"/>
      </g>
      <g>
        <rect class="cls-1" x="308.45" y="165.6" width="101.93" height="101.93" transform="translate(-47.86 317.58) rotate(-45)"/>
        <polygon class="cls-1" points="287 216.56 214.93 144.49 142.85 216.56 143.41 217.12 142.68 217.12 142.68 288.64 214.93 288.64 214.93 288.64 214.93 288.64 287.17 288.64 287.17 217.12 286.44 217.12 287 216.56"/>
        <rect class="cls-1" x="163.96" y="21.11" width="101.93" height="101.93" transform="translate(11.99 173.09) rotate(-45)"/>
        <polygon class="cls-1" points="360.37 .95 359.42 0 358.47 .95 287.17 .95 287.17 72.46 287.73 72.46 359.42 144.15 431.1 72.46 431.66 72.46 431.66 .95 360.37 .95"/>
      </g>
    </g>
  </g>
</svg>