<?xml version="1.0" encoding="UTF-8"?>
<svg id="Layer_2" data-name="Layer 2" xmlns="http://www.w3.org/2000/svg" viewBox="0 0 939.81 361.42">
  <defs>
    <style>
      .cls-1 {
        fill: #fff;
      }
    </style>
  </defs>
  <g id="Layer_1-2" data-name="Layer 1">
    <g>
      <g>
        <polygon class="cls-1" points="73.02 205.73 85.58 217.93 99.6 203.91 85.58 189.71 73.02 202.09 60.82 189.71 46.43 203.91 60.82 217.93 73.02 205.73"/>
        <path class="cls-1" d="M90.32,234.23c-4.73-4.55-9.9-6.83-15.48-6.83-4.01,0-7.8,1.31-11.38,3.92-3.58,2.61-6.8,6.1-9.65,10.47-2.85,4.37-5.1,9.29-6.74,14.75-1.64,5.46-2.46,11.11-2.46,16.94,0,8.62,2.28,15.33,6.83,20.12,4.55,4.8,10.83,7.19,18.85,7.19,6.07,0,11.77-1.33,17.12-4.01l7.28-23.85c3.4,6.8,5.1,14.45,5.1,22.94,0,2.07-.06,4.01-.18,5.83-6.07,3.76-13.84,6.77-23.31,9.01-9.47,2.25-19.12,3.37-28.95,3.37-13.11,0-22.76-2.34-28.95-7.01-6.19-4.67-9.29-11.62-9.29-20.85,0-6.07.97-12.81,2.91-20.21l-4.55-1.27c-4.98,13.96-7.47,26.65-7.47,38.06,0,8.38,1.61,15.75,4.82,22.12,3.22,6.37,8.19,11.35,14.93,14.93,6.74,3.58,15.39,5.37,25.95,5.37,6.8,0,13.59-.7,20.39-2.09,6.8-1.4,13.23-3.46,19.3-6.19,6.07-2.73,11.29-6.04,15.66-9.92,1.7-7.53,3-15.08,3.92-22.67.91-7.58,1.37-14.72,1.37-21.4,0-11.41-1.49-21.24-4.46-29.5-2.98-8.25-6.83-14.66-11.56-19.21ZM82.58,271.2c-3.95.43-7.92.64-11.93.64-6.19,0-10.96-.46-14.29-1.37-3.34-.91-5.01-2.46-5.01-4.64,0-2.79,1.61-5.25,4.83-7.37,3.21-2.12,7.01-3.19,11.38-3.19,5.34,0,10.13,1.27,14.38,3.82,4.25,2.55,7.77,5.95,10.56,10.2-2.67.85-5.98,1.49-9.92,1.91Z"/>
        <polygon class="cls-1" points="288.98 235.41 301.55 247.61 315.57 233.59 301.55 219.39 288.98 231.77 276.78 219.39 262.4 233.59 276.78 247.61 288.98 235.41"/>
        <polygon class="cls-1" points="454.5 200.09 419.72 217.93 419.72 227.95 454.5 210.1 454.5 200.09"/>
        <path class="cls-1" d="M461.15,244.79c-4.07-3.22-8.53-4.83-13.38-4.83-4.37,0-8.19,1.49-11.47,4.46-3.28,2.98-6.86,8.35-10.74,16.11l-4.55,9.29c-2.19,4.49-4.34,8.04-6.46,10.65-2.13,2.61-4.58,4.43-7.37,5.46-2.79,1.03-6.5,1.55-11.11,1.55-7.16,0-12.93-.12-17.3-.36,3.03-3.88,5.37-8.04,7.01-12.47,1.64-4.43,2.46-9.01,2.46-13.75,0-8.74-2.55-15.32-7.65-19.76-5.1-4.43-13.05-6.65-23.85-6.65-4.37,0-9.01.4-13.93,1.18-4.92.79-10.11,2.16-15.57,4.1l-11.11,29.32c3.16.73,5.74,1.88,7.74,3.46,2,1.58,4.64,4.31,7.92,8.19l5.46,6.01c-7.41.49-15.66.73-24.76.73-5.34,0-9.53-.42-12.56-1.27-3.04-.85-5.16-2.55-6.37-5.1-1.21-2.55-1.82-6.25-1.82-11.11v-12.93h-4.92l-5.83,26.4c-5.22,2.67-11.78,4.01-19.67,4.01h0s0,0,0,0h-84.86c-.25-8.62-1.64-16.27-4.19-22.94-2.55-6.67-5.89-11.93-10.02-15.75-4.13-3.82-8.68-5.74-13.66-5.74-4.01,0-7.8,1.31-11.38,3.91-3.58,2.61-6.77,6.1-9.56,10.47-2.79,4.37-5.01,9.29-6.65,14.75-1.64,5.46-2.46,11.11-2.46,16.94,0,8.62,2.37,15.33,7.1,20.12,4.73,4.8,12.08,7.19,22.03,7.19h17.3c-3.76,4.49-10.17,8.41-19.21,11.75-9.05,3.34-21.76,6.71-38.15,10.11v4.92l36.42,18.21c7.28-7.16,13.29-14.48,18.03-21.94,4.73-7.47,8.25-15.14,10.56-23.03h83.95c7.8-.04,14.3-2.04,19.48-6.01l4.01-18.21h.55c.85,7.89,3.52,13.9,8.01,18.03,4.49,4.13,10.8,6.19,18.94,6.19,8.98,0,17.57-.94,25.77-2.82,8.19-1.88,15.69-4.58,22.49-8.1,5.1,3.89,10.47,6.68,16.12,8.38,5.64,1.7,12.05,2.55,19.21,2.55,5.34,0,9.89-1.33,13.66-4.01,3.76-2.67,7.1-6.98,10.02-12.93,7.77,4.25,15.63,7.68,23.58,10.29,7.95,2.61,14.9,4.34,20.85,5.19,4.98-6.31,8.8-12.9,11.47-19.76,2.67-6.86,4.01-13.44,4.01-19.76s-1.25-12.5-3.73-17.84c-2.49-5.34-5.77-9.62-9.83-12.84ZM144.4,287.49c-6.07,0-10.81-.46-14.2-1.37-3.4-.91-5.1-2.46-5.1-4.64,0-2.79,1.61-5.25,4.83-7.38,3.22-2.12,7.01-3.19,11.38-3.19,4.98,0,9.74,1.58,14.29,4.73,4.55,3.16,8.1,7.1,10.65,11.84h-21.85ZM360.18,283.67c-.85-.48-1.64-1.09-2.37-1.82l-8.74-9.47c-4.01-4.37-6.98-6.86-8.92-7.47v-.73c3.28-.73,6.31-1.21,9.1-1.46,2.79-.24,5.46-.36,8.01-.36,7.89,0,13.59.61,17.12,1.82,3.52,1.21,5.28,3.16,5.28,5.83,0,6.19-6.5,10.74-19.48,13.66ZM447.13,282.48c-7.83-2.37-15.27-5.19-22.31-8.47,3.16-5.1,7.22-7.65,12.2-7.65,3.88,0,8.01,1.09,12.38,3.28,4.37,2.19,8.31,4.95,11.84,8.29,3.52,3.34,5.95,6.65,7.28,9.92-6.44-1.21-13.57-3.01-21.4-5.37Z"/>
        <path class="cls-1" d="M97.97,118h0c13.76-.03,25.9-2.39,36.41-7.1,1.7-5.58,3.06-11.2,4.1-16.84,1.03-5.65,1.55-11.08,1.55-16.3,0-7.04-.97-13.38-2.91-19.03-1.94-5.65-5.04-11.14-9.29-16.48h-4.92l-11.84,26.04c4.13,2.67,8.04,5.46,11.74,8.38,3.7,2.91,7.13,5.71,10.29,8.38-4.86,1.34-9.9,2.34-15.11,3-5.22.67-10.32,1-15.3,1h-26.59s0,0,0,0h-7.28c-.25-8.62-1.64-16.27-4.19-22.94-2.55-6.67-5.89-11.93-10.02-15.75-4.13-3.82-8.68-5.74-13.66-5.74-4.01,0-7.8,1.31-11.38,3.91-3.58,2.61-6.77,6.1-9.56,10.47-2.79,4.37-5.01,9.29-6.65,14.75-1.64,5.46-2.46,11.11-2.46,16.94,0,8.62,2.37,15.33,7.1,20.12,4.73,4.8,12.08,7.19,22.03,7.19h17.3c-3.76,4.49-10.17,8.41-19.21,11.75-9.05,3.34-21.76,6.71-38.15,10.11v4.92l36.42,18.21c7.28-7.16,13.29-14.48,18.03-21.94,4.73-7.47,8.25-15.14,10.56-23.03h32.96ZM36.78,89.04c-6.07,0-10.81-.46-14.2-1.37-3.4-.91-5.1-2.46-5.1-4.64,0-2.79,1.61-5.25,4.83-7.38,3.22-2.12,7.01-3.19,11.38-3.19,4.98,0,9.74,1.58,14.29,4.73,4.55,3.16,8.1,7.1,10.65,11.84h-21.85Z"/>
        <polygon class="cls-1" points="121.09 140.39 108.89 128.01 94.51 142.21 108.89 156.24 121.09 144.04 133.66 156.24 147.68 142.21 133.66 128.01 121.09 140.39"/>
        <path class="cls-1" d="M220.51,77.39c0-8.01-2.43-16.14-7.28-24.4-4.86-8.25-12.87-17.96-24.04-29.13h-4.73l-11.84,26.22c12.02,8.99,21.3,16.36,27.86,22.12,6.56,5.77,11.04,10.83,13.47,15.2-3.4,1.34-7.74,2.46-13.02,3.37-5.28.91-11.5,1.37-18.66,1.37-6.19,0-10.93-.42-14.2-1.27-3.28-.85-5.53-2.4-6.74-4.64-1.21-2.25-1.82-5.37-1.82-9.38h-4.73c-.85,3.04-1.7,6.35-2.55,9.92-.85,3.58-1.27,7.07-1.27,10.47,0,7.16,2.19,12.93,6.56,17.3,4.37,4.37,11.59,6.55,21.67,6.55,7.65,0,14.69-.82,21.12-2.46,6.43-1.64,11.71-3.79,15.84-6.46,1.7-7.53,2.85-13.87,3.46-19.03.61-5.16.91-10.41.91-15.75Z"/>
        <polygon class="cls-1" points="320.85 16.02 333.41 28.22 347.43 14.2 333.41 0 320.85 12.38 308.65 0 294.26 14.2 308.65 28.22 320.85 16.02"/>
        <path class="cls-1" d="M470.25,67.74c-1.64-5.46-3.85-10.8-6.65-16.02h-4.73l-10.74,21.49c3.16,3.04,6.13,6.1,8.92,9.2,2.79,3.1,5.28,5.98,7.47,8.65-4.13-.36-8.89-1.46-14.29-3.28-5.4-1.82-10.59-4.19-15.57-7.1v-15.11h-4.92l-2,9.65c-1.21,5.83-3.1,9.9-5.65,12.2-2.55,2.31-5.95,3.46-10.2,3.46s-8.77-.91-13.57-2.73c-4.8-1.82-9.74-4.43-14.84-7.83l4.55-8.74-4.19-2.37-4.37,6.56c-2.07,3.4-4.31,6.07-6.74,8.01-2.43,1.94-5.4,3.31-8.92,4.1-3.52.79-8.07,1.18-13.66,1.18-4.86,0-8.71-.61-11.56-1.82-2.85-1.21-4.98-3.4-6.37-6.55-1.4-3.16-2.46-7.71-3.19-13.66l-3.46-29.32h-4.73l-11.84,26.22,4.73,15.48c.85,2.55,1.64,4.8,2.37,6.74-3.04.97-6.4,1.7-10.11,2.18-3.7.49-7.62.73-11.74.73h-7.28c-.25-8.62-1.64-16.27-4.19-22.94-2.55-6.67-5.89-11.93-10.02-15.75-4.13-3.82-8.68-5.74-13.66-5.74-4.01,0-7.8,1.31-11.38,3.91-3.58,2.61-6.77,6.1-9.56,10.47-2.79,4.37-5.01,9.29-6.65,14.75s-2.46,11.11-2.46,16.94c0,8.62,2.37,15.33,7.1,20.12,4.73,4.8,12.08,7.19,22.03,7.19h17.3c-3.76,4.49-10.17,8.41-19.21,11.75-9.05,3.34-21.76,6.71-38.15,10.11v4.92l36.42,18.21c7.28-7.16,13.29-14.48,18.03-21.94,4.73-7.47,8.25-15.14,10.56-23.03h6.38c9.99-.03,18.31-2.21,24.94-6.56l3.82-17.66h.55c3.4,8.74,6.98,14.96,10.74,18.66,3.76,3.7,8.98,5.55,15.66,5.55,5.34,0,9.98-.94,13.93-2.82,3.94-1.88,7.68-5.31,11.2-10.29,5.22,4.25,10.89,7.8,17.03,10.65,6.13,2.85,11.68,4.28,16.66,4.28,4.25,0,7.53-1.03,9.83-3.1,2.3-2.06,4.43-5.4,6.37-10.02l1.27-2.91c5.58,4.37,11.77,7.8,18.57,10.29,6.8,2.49,12.99,3.79,18.57,3.91,4.25-4.98,7.65-10.77,10.2-17.39,2.55-6.62,3.82-12.72,3.82-18.3,0-4.25-.82-9.11-2.46-14.57ZM254.93,89.04c-6.07,0-10.81-.46-14.2-1.37-3.4-.91-5.1-2.46-5.1-4.64,0-2.79,1.61-5.25,4.83-7.38,3.22-2.12,7.01-3.19,11.38-3.19,4.98,0,9.74,1.58,14.29,4.73,4.55,3.16,8.1,7.1,10.65,11.84h-21.85Z"/>
      </g>
      <g>
        <rect class="cls-1" x="785.54" y="207.36" width="127.63" height="127.63" transform="translate(57.02 680.01) rotate(-45)"/>
        <polygon class="cls-1" points="758.67 271.17 668.43 180.93 578.18 271.17 578.88 271.87 577.96 271.87 577.96 361.42 668.43 361.42 668.43 361.42 668.43 361.42 758.89 361.42 758.89 271.87 757.97 271.87 758.67 271.17"/>
        <rect class="cls-1" x="604.61" y="26.43" width="127.63" height="127.63" transform="translate(131.96 499.08) rotate(-45)"/>
        <polygon class="cls-1" points="850.54 1.19 849.35 0 848.16 1.19 758.89 1.19 758.89 90.73 759.59 90.73 849.35 180.5 939.11 90.73 939.81 90.73 939.81 1.19 850.54 1.19"/>
      </g>
    </g>
  </g>
</svg>