<?xml version="1.0" encoding="UTF-8"?>
<svg id="Layer_2" data-name="Layer 2" xmlns="http://www.w3.org/2000/svg" viewBox="0 0 1200.04 324.79">
  <defs>
    <style>
      .cls-1 {
        fill: #fff;
      }
    </style>
  </defs>
  <g id="Layer_1-2" data-name="Layer 1">
    <g>
      <g>
        <g>
          <polygon class="cls-1" points="610.31 24.44 623.67 21.33 623.67 15.29 579.39 15.29 577.92 20.78 552.13 85.01 522.3 15.29 476.37 15.29 476.37 21.33 490.83 24.81 485.16 122.33 471.25 125.63 471.25 131.85 513.88 131.85 513.88 125.44 494.49 121.78 498.33 33.59 531.45 109.16 538.77 128 542.79 128 550.3 108.79 581.22 31.76 584.88 122.33 570.97 125.63 570.97 131.85 628.79 131.85 628.79 125.63 615.25 122.33 610.31 24.44"/>
          <path class="cls-1" d="M711.5,120.87c-.98-.73-1.46-2.5-1.46-5.31v-45.2c0-10.12-2.69-17.32-8.05-21.59-5.37-4.27-12.75-6.4-22.14-6.4-7.56,0-14.64,1.19-21.22,3.57-6.59,2.38-11.87,5.37-15.83,8.97-3.97,3.6-5.95,7.17-5.95,10.7s1.1,5.98,3.29,7.68c2.2,1.71,5.06,2.56,8.6,2.56,4.88,0,8.9-.73,12.08-2.2l.55-20.86c1.46-1.22,3.66-1.83,6.59-1.83,4.51,0,7.9,1.71,10.15,5.12,2.26,3.42,3.57,7.5,3.93,12.26v13.72l-16.65,4.02c-10.61,2.56-18.42,5.76-23.42,9.61-5,3.84-7.5,9.3-7.5,16.38,0,6.59,2.22,11.96,6.68,16.1,4.45,4.15,10.03,6.22,16.74,6.22,6.22,0,11.25-1.59,15.1-4.76,3.84-3.17,6.92-6.46,9.24-9.88h.73c.37,5.25,1.89,8.94,4.57,11.07,2.68,2.13,6.46,3.2,11.34,3.2,3.54,0,7.16-.64,10.89-1.92,3.72-1.28,8.08-3.2,13.08-5.76v-4.39h-6.4c-2.32,0-3.97-.37-4.94-1.1ZM682.04,115.01c-1.22,1.22-2.59,2.26-4.12,3.11-1.53.86-3.2,1.28-5.03,1.28-3.66,0-6.56-1.22-8.69-3.66-2.14-2.44-3.2-5.55-3.2-9.33,0-3.54,1.16-6.71,3.48-9.51,2.32-2.8,6.22-5.06,11.71-6.77l5.86-1.83v26.72Z"/>
          <path class="cls-1" d="M803.35,120.87c-.98-.73-1.46-2.5-1.46-5.31v-45.2c0-10.12-2.69-17.32-8.05-21.59-5.37-4.27-12.75-6.4-22.14-6.4-7.56,0-14.64,1.19-21.22,3.57-6.59,2.38-11.87,5.37-15.83,8.97-3.97,3.6-5.95,7.17-5.95,10.7s1.1,5.98,3.29,7.68c2.2,1.71,5.06,2.56,8.6,2.56,4.88,0,8.9-.73,12.08-2.2l.55-20.86c1.46-1.22,3.66-1.83,6.59-1.83,4.51,0,7.9,1.71,10.15,5.12,2.26,3.42,3.57,7.5,3.93,12.26v13.72l-16.65,4.02c-10.61,2.56-18.42,5.76-23.42,9.61-5,3.84-7.5,9.3-7.5,16.38,0,6.59,2.22,11.96,6.68,16.1,4.45,4.15,10.03,6.22,16.74,6.22,6.22,0,11.25-1.59,15.1-4.76,3.84-3.17,6.92-6.46,9.24-9.88h.73c.37,5.25,1.89,8.94,4.57,11.07,2.68,2.13,6.46,3.2,11.34,3.2,3.54,0,7.16-.64,10.89-1.92,3.72-1.28,8.08-3.2,13.08-5.76v-4.39h-6.4c-2.32,0-3.97-.37-4.94-1.1ZM773.89,115.01c-1.22,1.22-2.59,2.26-4.12,3.11-1.53.86-3.2,1.28-5.03,1.28-3.66,0-6.56-1.22-8.69-3.66-2.14-2.44-3.2-5.55-3.2-9.33,0-3.54,1.16-6.71,3.48-9.51,2.32-2.8,6.22-5.06,11.71-6.77l5.86-1.83v26.72Z"/>
          <path class="cls-1" d="M876.63,120.69c-1.77.37-3.69.55-5.76.55-3.42,0-6.65-.76-9.7-2.29-3.05-1.52-5.12-4.36-6.22-8.51v-55.26h25.43v-10.06h-25.43v-21.96h-3.29l-24.52,21.41-12.99,4.39v6.04h12.81l-.55,54.53c-.12,7.81,1.74,13.88,5.58,18.21,3.84,4.33,9.85,6.5,18.02,6.5,7.2,0,13.39-1.1,18.57-3.29,5.18-2.2,9.36-4.21,12.53-6.04l-1.1-4.94c-.49.12-1.62.37-3.39.73Z"/>
          <path class="cls-1" d="M958.7,48.04c-7.2-3.78-15.49-5.67-24.88-5.67-8.91,0-17.02,2.04-24.34,6.13-7.32,4.09-13.11,9.7-17.38,16.83-4.27,7.14-6.4,15.28-6.4,24.43,0,7.81,1.86,15.1,5.58,21.87,3.72,6.77,9.15,12.26,16.28,16.47,7.14,4.21,15.89,6.31,26.26,6.31,9.15,0,17.32-2.04,24.52-6.13,7.2-4.09,12.9-9.73,17.11-16.93,4.21-7.2,6.31-15.43,6.31-24.7,0-8.66-2.04-16.31-6.13-22.96-4.09-6.65-9.73-11.86-16.92-15.64ZM947.81,119.68c-2.5,5.55-6.19,8.33-11.07,8.33-4.39,0-8.14-2.35-11.25-7.04-3.11-4.69-5.52-10.76-7.23-18.21-1.71-7.44-2.56-15.37-2.56-23.79,0-4.51.43-9.09,1.28-13.72.85-4.63,2.38-8.54,4.57-11.71,2.2-3.17,5.24-4.76,9.15-4.76,4.15,0,7.78,2.17,10.89,6.5,3.11,4.33,5.55,10.13,7.32,17.38,1.77,7.26,2.65,15.28,2.65,24.06,0,9.76-1.25,17.42-3.75,22.96Z"/>
          <path class="cls-1" d="M1081.11,42.92l-39.71,6.95v3.84l11.34,5.12v55.26c-1.59,1.1-3.38,2.04-5.4,2.84-2.01.79-4.3,1.19-6.86,1.19-5.25,0-8.91-1.46-10.98-4.39-2.08-2.93-3.11-6.89-3.11-11.89v-58.37l-39.16,6.95v3.84l10.61,5.12v48.31c0,6.71,1.22,12.02,3.66,15.92,2.44,3.91,5.61,6.68,9.51,8.33,3.9,1.65,8.05,2.47,12.44,2.47s8.42-.76,12.08-2.29c3.66-1.53,6.98-3.45,9.97-5.76,2.99-2.32,5.52-4.51,7.59-6.59l2.01,14.27,37.33-5.67v-4.94l-11.34-2.74V42.92Z"/>
          <path class="cls-1" d="M1183.76,54.63l13.54-4.02v-5.49h-43.18v5.49l14.82,5.12-31.47,31.11,21.04,33.48c2.93,4.88,6.28,8.42,10.06,10.61,3.78,2.2,8.54,3.29,14.27,3.29,3.29,0,6.25-.4,8.87-1.19,2.62-.79,5.4-1.92,8.33-3.38l-38.97-55.63,22.69-19.4Z"/>
          <polygon class="cls-1" points="1136 .47 1097.21 12 1097.21 15.48 1107.64 21.88 1107.64 123.25 1096.84 125.81 1096.84 131.85 1146.25 131.85 1146.25 125.81 1136 123.25 1136 .47"/>
        </g>
        <g>
          <path class="cls-1" d="M532.18,252.15l-11.34-4.39c-7.08-2.93-12.2-5.88-15.37-8.87-3.17-2.99-4.76-7.1-4.76-12.35s1.77-9.21,5.31-12.63c3.54-3.41,8.29-5.12,14.27-5.12,3.41,0,6.25.49,8.51,1.46,2.26.98,4.12,2.14,5.58,3.48l11.89,27.26h5.49l-.37-31.47c-4.15-1.83-8.85-3.5-14.09-5.03-5.25-1.52-10.55-2.29-15.92-2.29-10.25,0-18.85,1.86-25.8,5.58-6.95,3.72-12.17,8.45-15.64,14.18-3.48,5.74-5.22,11.59-5.22,17.57,0,7.93,2.22,14.76,6.68,20.49,4.45,5.74,11.62,10.55,21.5,14.46l10.43,4.03c6.22,2.56,10.61,5.34,13.17,8.33,2.56,2.99,3.84,6.8,3.84,11.44,0,5.74-1.86,10.4-5.58,14-3.72,3.6-8.45,5.4-14.18,5.4-4.39,0-8.14-.67-11.25-2.01-3.11-1.34-5.76-2.8-7.96-4.39l-15-30.74h-5.12l3.29,36.6c4.63,1.95,9.79,3.72,15.46,5.31,5.67,1.58,11.92,2.38,18.76,2.38,6.22,0,12.23-.92,18.02-2.75,5.79-1.83,11.04-4.54,15.74-8.14,4.69-3.6,8.42-7.99,11.16-13.17,2.74-5.18,4.12-11.13,4.12-17.84s-1.92-12.56-5.76-17.56c-3.84-5-10.46-9.39-19.85-13.17Z"/>
          <path class="cls-1" d="M623.76,311.07c-1.77.37-3.69.55-5.76.55-3.42,0-6.65-.76-9.7-2.29-3.05-1.52-5.12-4.36-6.22-8.51v-55.26h25.43v-10.06h-25.43v-21.96h-3.29l-24.52,21.41-12.99,4.39v6.04h12.81l-.55,54.53c-.12,7.81,1.74,13.88,5.58,18.21,3.84,4.33,9.85,6.5,18.02,6.5,7.2,0,13.39-1.1,18.57-3.29,5.18-2.2,9.36-4.21,12.53-6.04l-1.1-4.94c-.49.12-1.62.37-3.39.73Z"/>
          <path class="cls-1" d="M723.21,233.31l-39.71,6.95v3.84l11.34,5.12v55.26c-1.59,1.1-3.38,2.04-5.4,2.84-2.01.79-4.3,1.19-6.86,1.19-5.25,0-8.91-1.46-10.98-4.39-2.08-2.93-3.11-6.89-3.11-11.89v-58.37l-39.16,6.95v3.84l10.61,5.12v48.31c0,6.71,1.22,12.02,3.66,15.92,2.44,3.91,5.61,6.68,9.51,8.33,3.9,1.65,8.05,2.47,12.44,2.47s8.42-.76,12.08-2.29c3.66-1.53,6.98-3.45,9.97-5.76,2.99-2.32,5.52-4.51,7.59-6.59l2.01,14.27,37.33-5.67v-4.94l-11.34-2.74v-77.77Z"/>
          <path class="cls-1" d="M829.88,190.86l-42.45,9.88v2.93l13.91,6.77v24.33c-3.29-.37-5.85-.55-7.68-.55-9.52,0-18.33,2.01-26.44,6.04-8.11,4.03-14.61,9.67-19.49,16.93-4.88,7.26-7.32,15.77-7.32,25.53,0,8.17,1.56,15.43,4.67,21.77,3.11,6.34,7.38,11.31,12.81,14.91,5.43,3.6,11.62,5.4,18.57,5.4,5.85,0,10.98-1.22,15.37-3.66,4.39-2.44,7.93-5.12,10.61-8.05l2.2,11.34,35.31-5.85v-4.94l-10.06-2.56v-120.22ZM801.34,307.78c-2.44,1.83-5.25,2.74-8.42,2.74-4.51,0-8.6-1.71-12.26-5.12-3.66-3.41-6.56-8.08-8.69-14-2.14-5.92-3.2-12.59-3.2-20.03s.85-13.42,2.56-17.93c1.71-4.51,3.9-7.78,6.59-9.79,2.68-2.01,5.49-3.02,8.42-3.02,3.54,0,6.46.91,8.78,2.74,2.32,1.83,4.39,4.33,6.22,7.5v56.9Z"/>
          <path class="cls-1" d="M873.25,220.31c4.03,0,7.47-1.4,10.34-4.21,2.86-2.8,4.3-6.22,4.3-10.24s-1.44-7.47-4.3-10.34c-2.87-2.87-6.31-4.3-10.34-4.3s-7.44,1.44-10.25,4.3c-2.81,2.87-4.21,6.31-4.21,10.34s1.4,7.44,4.21,10.24c2.8,2.81,6.22,4.21,10.25,4.21Z"/>
          <polygon class="cls-1" points="887.34 232.76 847.81 241.72 847.81 245.02 858.79 252.88 858.79 313.63 847.45 316.19 847.45 322.23 898.68 322.23 898.68 316.19 887.34 313.63 887.34 232.76"/>
          <path class="cls-1" d="M994.29,254.07c-4.09-6.65-9.73-11.86-16.92-15.64-7.2-3.78-15.49-5.67-24.88-5.67-8.91,0-17.02,2.04-24.34,6.13-7.32,4.09-13.11,9.7-17.38,16.83-4.27,7.14-6.4,15.28-6.4,24.43,0,7.81,1.86,15.1,5.58,21.87,3.72,6.77,9.15,12.26,16.28,16.47,7.14,4.21,15.89,6.31,26.26,6.31,9.15,0,17.32-2.04,24.52-6.13,7.2-4.09,12.9-9.73,17.11-16.93,4.21-7.2,6.31-15.43,6.31-24.7,0-8.66-2.04-16.31-6.13-22.96ZM966.47,310.06c-2.5,5.55-6.19,8.33-11.07,8.33-4.39,0-8.14-2.35-11.25-7.04-3.11-4.69-5.52-10.76-7.23-18.21-1.71-7.44-2.56-15.37-2.56-23.79,0-4.51.43-9.09,1.28-13.72.85-4.63,2.38-8.54,4.57-11.71,2.2-3.17,5.24-4.76,9.15-4.76,4.15,0,7.78,2.17,10.89,6.5,3.11,4.33,5.55,10.13,7.32,17.38,1.77,7.26,2.65,15.28,2.65,24.06,0,9.76-1.25,17.42-3.75,22.96Z"/>
        </g>
      </g>
      <g>
        <rect class="cls-1" x="186.37" y="186.18" width="114.59" height="114.59" transform="translate(-100.79 243.61) rotate(-45)"/>
        <polygon class="cls-1" points="162.25 243.48 81.22 162.45 .19 243.48 .82 244.11 0 244.11 0 324.51 81.22 324.51 81.22 324.51 81.22 324.51 162.45 324.51 162.45 244.11 161.62 244.11 162.25 243.48"/>
        <rect class="cls-1" x="23.93" y="23.73" width="114.59" height="114.59" transform="translate(-33.51 81.17) rotate(-45)"/>
        <polygon class="cls-1" points="244.73 1.07 243.67 0 242.6 1.07 162.45 1.07 162.45 81.47 163.08 81.47 243.67 162.06 324.26 81.47 324.89 81.47 324.89 1.07 244.73 1.07"/>
      </g>
    </g>
  </g>
</svg>