<?xml version="1.0" encoding="UTF-8"?>
<svg id="Layer_2" data-name="Layer 2" xmlns="http://www.w3.org/2000/svg" viewBox="0 0 1152.51 251.86">
  <defs>
    <style>
      .cls-1 {
        fill: #0029d6;
      }
    </style>
  </defs>
  <g id="Layer_1-2" data-name="Layer 1">
    <g>
      <g>
        <polygon class="cls-1" points="60.27 13.23 70.64 23.3 82.21 11.72 70.64 0 60.27 10.22 50.2 0 38.33 11.72 50.2 23.3 60.27 13.23"/>
        <path class="cls-1" d="M74.55,36.75c-3.91-3.76-8.17-5.64-12.78-5.64-3.31,0-6.44,1.08-9.39,3.23-2.96,2.16-5.61,5.03-7.97,8.64-2.36,3.61-4.21,7.67-5.56,12.17-1.35,4.51-2.03,9.17-2.03,13.98,0,7.12,1.88,12.65,5.64,16.61,3.76,3.96,8.94,5.94,15.56,5.94,5.01,0,9.72-1.1,14.13-3.31l6.01-19.69c2.8,5.61,4.21,11.93,4.21,18.94,0,1.7-.05,3.31-.15,4.81-5.01,3.11-11.42,5.59-19.24,7.44-7.82,1.86-15.78,2.78-23.9,2.78-10.82,0-18.79-1.93-23.9-5.79-5.11-3.86-7.67-9.59-7.67-17.21,0-5.01.8-10.57,2.4-16.68l-3.76-1.05c-4.11,11.52-6.16,22-6.16,31.41,0,6.91,1.33,13,3.98,18.26,2.65,5.26,6.76,9.37,12.32,12.32,5.56,2.95,12.7,4.43,21.42,4.43,5.61,0,11.22-.58,16.83-1.73,5.61-1.15,10.92-2.86,15.93-5.11,5.01-2.26,9.32-4.99,12.93-8.19,1.4-6.21,2.48-12.45,3.23-18.71.75-6.26,1.13-12.15,1.13-17.66,0-9.42-1.23-17.53-3.68-24.35-2.46-6.81-5.64-12.1-9.54-15.86ZM68.16,67.26c-3.26.35-6.54.53-9.84.53-5.11,0-9.04-.38-11.8-1.13-2.76-.75-4.13-2.03-4.13-3.83,0-2.3,1.33-4.33,3.98-6.09,2.65-1.75,5.79-2.63,9.39-2.63,4.41,0,8.36,1.05,11.87,3.16,3.51,2.1,6.41,4.91,8.72,8.42-2.2.7-4.94,1.23-8.19,1.58Z"/>
        <polygon class="cls-1" points="207.42 37.73 217.79 47.8 229.36 36.22 217.79 24.5 207.42 34.72 197.35 24.5 185.47 36.22 197.35 47.8 207.42 37.73"/>
        <polygon class="cls-1" points="344.04 8.57 315.33 23.3 315.33 31.56 344.04 16.83 344.04 8.57"/>
        <path class="cls-1" d="M349.52,45.47c-3.36-2.65-7.04-3.98-11.05-3.98-3.61,0-6.76,1.23-9.47,3.68-2.71,2.46-5.66,6.89-8.87,13.3l-3.76,7.67c-1.8,3.71-3.58,6.64-5.34,8.79-1.75,2.16-3.78,3.66-6.09,4.51-2.31.85-5.36,1.28-9.17,1.28-5.91,0-10.67-.1-14.28-.3,2.5-3.21,4.43-6.64,5.79-10.3,1.35-3.66,2.03-7.44,2.03-11.35,0-7.21-2.1-12.65-6.31-16.31-4.21-3.66-10.77-5.49-19.69-5.49-3.61,0-7.44.33-11.5.98-4.06.65-8.34,1.78-12.85,3.38l-9.17,24.2c2.6.6,4.73,1.55,6.39,2.86,1.65,1.3,3.83,3.56,6.54,6.76l4.51,4.96c-6.11.4-12.93.6-20.44.6-4.41,0-7.87-.35-10.37-1.05-2.51-.7-4.26-2.1-5.26-4.21-1-2.1-1.5-5.16-1.5-9.17v-10.67h-4.06l-4.81,21.79c-4.31,2.2-9.72,3.31-16.23,3.31h0s0,0,0,0h-38.93c-.2-7.11-1.35-13.43-3.46-18.94-2.1-5.51-4.86-9.84-8.27-13-3.41-3.16-7.17-4.73-11.27-4.73-3.31,0-6.44,1.08-9.39,3.23-2.96,2.16-5.59,5.04-7.89,8.64-2.31,3.61-4.13,7.67-5.49,12.17-1.35,4.51-2.03,9.17-2.03,13.98,0,7.12,1.95,12.65,5.86,16.61,3.91,3.96,9.97,5.94,18.19,5.94h14.28c-3.11,3.71-8.39,6.94-15.86,9.69-7.47,2.75-17.96,5.54-31.49,8.34v4.06l30.06,15.03c6.01-5.91,10.97-11.95,14.88-18.11,3.91-6.16,6.81-12.5,8.72-19.01h38.18c6.44-.03,11.8-1.68,16.08-4.96l3.31-15.03h.45c.7,6.51,2.9,11.47,6.61,14.88,3.71,3.41,8.92,5.11,15.63,5.11,7.41,0,14.5-.77,21.27-2.33,6.76-1.55,12.95-3.78,18.56-6.69,4.21,3.21,8.64,5.51,13.3,6.91,4.66,1.4,9.94,2.1,15.86,2.1,4.41,0,8.17-1.1,11.27-3.31,3.1-2.2,5.86-5.76,8.27-10.67,6.41,3.51,12.9,6.34,19.46,8.49,6.56,2.16,12.3,3.58,17.21,4.28,4.11-5.21,7.26-10.65,9.47-16.31,2.2-5.66,3.31-11.1,3.31-16.31s-1.03-10.32-3.08-14.73c-2.06-4.41-4.76-7.94-8.12-10.6ZM119.19,80.71c-5.01,0-8.92-.38-11.72-1.13-2.81-.75-4.21-2.03-4.21-3.83,0-2.3,1.33-4.33,3.98-6.09,2.65-1.75,5.79-2.63,9.39-2.63,4.11,0,8.04,1.3,11.8,3.91,3.76,2.61,6.69,5.86,8.79,9.77h-18.04ZM266.18,77.56c-.7-.4-1.35-.9-1.95-1.5l-7.21-7.82c-3.31-3.61-5.76-5.66-7.36-6.16v-.6c2.71-.6,5.21-1,7.51-1.2,2.3-.2,4.51-.3,6.61-.3,6.51,0,11.22.5,14.13,1.5,2.9,1,4.36,2.61,4.36,4.81,0,5.11-5.36,8.87-16.08,11.27ZM337.95,76.58c-6.46-1.95-12.6-4.28-18.41-6.99,2.6-4.21,5.96-6.31,10.07-6.31,3.21,0,6.61.9,10.22,2.7,3.61,1.8,6.86,4.08,9.77,6.84,2.9,2.76,4.91,5.49,6.01,8.19-5.31-1-11.2-2.48-17.66-4.43Z"/>
        <path class="cls-1" d="M467.29,104.61h0c11.36-.02,21.38-1.97,30.06-5.86,1.4-4.61,2.53-9.24,3.38-13.9.85-4.66,1.28-9.14,1.28-13.45,0-5.81-.8-11.05-2.41-15.71-1.6-4.66-4.16-9.19-7.67-13.6h-4.06l-9.77,21.49c3.41,2.2,6.64,4.51,9.69,6.91,3.06,2.4,5.89,4.71,8.49,6.91-4.01,1.1-8.17,1.93-12.47,2.48-4.31.55-8.52.83-12.63.83h-21.94s0,0,0,0h-6.01c-.2-7.11-1.35-13.43-3.46-18.94-2.1-5.51-4.86-9.84-8.27-13-3.41-3.16-7.17-4.73-11.27-4.73-3.31,0-6.44,1.08-9.39,3.23-2.96,2.16-5.59,5.04-7.89,8.64-2.31,3.61-4.13,7.67-5.49,12.17-1.35,4.51-2.03,9.17-2.03,13.98,0,7.12,1.95,12.65,5.86,16.61,3.91,3.96,9.97,5.94,18.19,5.94h14.28c-3.11,3.71-8.39,6.94-15.86,9.69-7.47,2.75-17.96,5.54-31.49,8.34v4.06l30.06,15.03c6.01-5.91,10.97-11.95,14.88-18.11,3.91-6.16,6.81-12.5,8.72-19.01h27.2ZM416.78,80.71c-5.01,0-8.92-.38-11.72-1.13-2.81-.75-4.21-2.03-4.21-3.83,0-2.3,1.33-4.33,3.98-6.09,2.65-1.75,5.79-2.63,9.39-2.63,4.11,0,8.04,1.3,11.8,3.91,3.76,2.61,6.69,5.86,8.79,9.77h-18.04Z"/>
        <polygon class="cls-1" points="486.37 123.1 476.3 112.88 464.43 124.6 476.3 136.17 486.37 126.1 496.75 136.17 508.32 124.6 496.75 112.88 486.37 123.1"/>
        <path class="cls-1" d="M568.44,71.09c0-6.61-2.01-13.32-6.01-20.14-4.01-6.81-10.62-14.83-19.84-24.05h-3.91l-9.77,21.64c9.92,7.42,17.59,13.5,23,18.26,5.41,4.76,9.12,8.94,11.12,12.55-2.81,1.1-6.39,2.03-10.75,2.78-4.36.75-9.5,1.13-15.41,1.13-5.11,0-9.02-.35-11.72-1.05-2.71-.7-4.56-1.98-5.56-3.83-1-1.85-1.5-4.43-1.5-7.74h-3.91c-.7,2.51-1.4,5.24-2.1,8.19-.7,2.96-1.05,5.84-1.05,8.64,0,5.91,1.8,10.67,5.41,14.28,3.61,3.61,9.57,5.41,17.89,5.41,6.31,0,12.12-.68,17.43-2.03,5.31-1.35,9.67-3.13,13.08-5.33,1.4-6.21,2.35-11.45,2.86-15.71.5-4.26.75-8.59.75-13Z"/>
        <polygon class="cls-1" points="651.25 20.44 661.63 30.51 673.2 18.94 661.63 7.21 651.25 17.43 641.18 7.21 629.31 18.94 641.18 30.51 651.25 20.44"/>
        <path class="cls-1" d="M774.58,63.13c-1.35-4.51-3.18-8.92-5.49-13.23h-3.91l-8.87,17.74c2.6,2.51,5.06,5.04,7.37,7.59,2.3,2.56,4.36,4.94,6.16,7.14-3.41-.3-7.34-1.2-11.8-2.71-4.46-1.5-8.74-3.46-12.85-5.86v-12.47h-4.06l-1.65,7.97c-1,4.81-2.56,8.17-4.66,10.07-2.1,1.9-4.91,2.86-8.42,2.86s-7.24-.75-11.2-2.25c-3.96-1.5-8.04-3.66-12.25-6.46l3.76-7.22-3.46-1.95-3.61,5.41c-1.7,2.81-3.56,5.01-5.56,6.61-2.01,1.6-4.46,2.73-7.37,3.38-2.91.65-6.66.98-11.27.98-4.01,0-7.19-.5-9.54-1.5-2.36-1-4.11-2.8-5.26-5.41-1.15-2.6-2.03-6.36-2.63-11.27l-2.86-24.2h-3.91l-9.77,21.64,3.91,12.78c.7,2.1,1.35,3.96,1.95,5.56-2.51.8-5.29,1.4-8.34,1.8-3.06.4-6.29.6-9.69.6h-6.01c-.2-7.11-1.35-13.43-3.46-18.94-2.1-5.51-4.86-9.84-8.27-13-3.41-3.16-7.17-4.73-11.27-4.73-3.31,0-6.44,1.08-9.39,3.23-2.96,2.16-5.59,5.04-7.89,8.64-2.31,3.61-4.13,7.67-5.49,12.17-1.35,4.51-2.03,9.17-2.03,13.98,0,7.12,1.95,12.65,5.86,16.61,3.91,3.96,9.97,5.94,18.19,5.94h14.28c-3.11,3.71-8.39,6.94-15.86,9.69-7.47,2.75-17.96,5.54-31.49,8.34v4.06l30.06,15.03c6.01-5.91,10.97-11.95,14.88-18.11,3.91-6.16,6.81-12.5,8.72-19.01h5.26c8.25-.03,15.11-1.83,20.59-5.41l3.16-14.58h.45c2.8,7.21,5.76,12.35,8.87,15.41,3.1,3.06,7.41,4.58,12.93,4.58,4.41,0,8.24-.77,11.5-2.33,3.26-1.55,6.34-4.38,9.24-8.49,4.31,3.51,8.99,6.44,14.05,8.79,5.06,2.35,9.64,3.53,13.75,3.53,3.51,0,6.21-.85,8.12-2.55,1.9-1.7,3.66-4.46,5.26-8.27l1.05-2.4c4.61,3.61,9.72,6.44,15.33,8.49,5.61,2.06,10.72,3.13,15.33,3.23,3.51-4.11,6.31-8.89,8.42-14.35,2.1-5.46,3.16-10.5,3.16-15.11,0-3.51-.68-7.52-2.03-12.02ZM596.85,80.71c-5.01,0-8.92-.38-11.72-1.13-2.81-.75-4.21-2.03-4.21-3.83,0-2.3,1.33-4.33,3.98-6.09,2.65-1.75,5.79-2.63,9.39-2.63,4.11,0,8.04,1.3,11.8,3.91,3.76,2.61,6.69,5.86,8.79,9.77h-18.04Z"/>
        <polygon class="cls-1" points="81.52 187.39 89.35 185.57 89.35 182.03 63.39 182.03 62.54 185.25 47.41 222.9 29.93 182.03 3 182.03 3 185.57 11.48 187.61 8.15 244.78 0 246.71 0 250.36 24.99 250.36 24.99 246.6 13.62 244.46 15.88 192.76 35.29 237.06 39.58 248.11 41.94 248.11 46.34 236.84 64.47 191.68 66.61 244.78 58.46 246.71 58.46 250.36 92.36 250.36 92.36 246.71 84.42 244.78 81.52 187.39"/>
        <path class="cls-1" d="M140.84,243.92c-.57-.43-.86-1.46-.86-3.11v-26.49c0-5.93-1.57-10.15-4.72-12.66-3.15-2.5-7.47-3.75-12.98-3.75-4.43,0-8.58.7-12.44,2.09-3.86,1.39-6.96,3.15-9.28,5.26-2.32,2.11-3.49,4.2-3.49,6.27s.64,3.5,1.93,4.5c1.29,1,2.97,1.5,5.04,1.5,2.86,0,5.22-.43,7.08-1.29l.32-12.23c.86-.71,2.15-1.07,3.86-1.07,2.64,0,4.63,1,5.95,3,1.32,2,2.09,4.4,2.31,7.19v8.04l-9.76,2.36c-6.22,1.5-10.8,3.38-13.73,5.63-2.93,2.25-4.4,5.45-4.4,9.6,0,3.86,1.3,7.01,3.92,9.44,2.61,2.43,5.88,3.65,9.81,3.65,3.65,0,6.6-.93,8.85-2.79,2.25-1.86,4.06-3.79,5.42-5.79h.43c.21,3.08,1.11,5.24,2.68,6.49,1.57,1.25,3.79,1.88,6.65,1.88,2.07,0,4.2-.38,6.38-1.13,2.18-.75,4.74-1.88,7.67-3.38v-2.57h-3.75c-1.36,0-2.33-.21-2.9-.64ZM123.57,240.49c-.72.72-1.52,1.32-2.41,1.82-.9.5-1.88.75-2.95.75-2.14,0-3.84-.71-5.1-2.15-1.25-1.43-1.88-3.25-1.88-5.47,0-2.07.68-3.93,2.04-5.58,1.36-1.64,3.65-2.97,6.86-3.97l3.43-1.07v15.66Z"/>
        <path class="cls-1" d="M194.69,243.92c-.57-.43-.86-1.46-.86-3.11v-26.49c0-5.93-1.57-10.15-4.72-12.66-3.15-2.5-7.47-3.75-12.98-3.75-4.43,0-8.58.7-12.44,2.09-3.86,1.39-6.96,3.15-9.28,5.26-2.32,2.11-3.49,4.2-3.49,6.27s.64,3.5,1.93,4.5c1.29,1,2.97,1.5,5.04,1.5,2.86,0,5.22-.43,7.08-1.29l.32-12.23c.86-.71,2.15-1.07,3.86-1.07,2.64,0,4.63,1,5.95,3,1.32,2,2.09,4.4,2.31,7.19v8.04l-9.76,2.36c-6.22,1.5-10.8,3.38-13.73,5.63-2.93,2.25-4.4,5.45-4.4,9.6,0,3.86,1.3,7.01,3.92,9.44,2.61,2.43,5.88,3.65,9.81,3.65,3.65,0,6.6-.93,8.85-2.79,2.25-1.86,4.06-3.79,5.42-5.79h.43c.21,3.08,1.11,5.24,2.68,6.49,1.57,1.25,3.79,1.88,6.65,1.88,2.07,0,4.2-.38,6.38-1.13,2.18-.75,4.74-1.88,7.67-3.38v-2.57h-3.75c-1.36,0-2.33-.21-2.9-.64ZM177.42,240.49c-.72.72-1.52,1.32-2.41,1.82-.9.5-1.88.75-2.95.75-2.14,0-3.84-.71-5.1-2.15-1.25-1.43-1.88-3.25-1.88-5.47,0-2.07.68-3.93,2.04-5.58,1.36-1.64,3.65-2.97,6.86-3.97l3.43-1.07v15.66Z"/>
        <path class="cls-1" d="M237.65,243.82c-1.04.21-2.16.32-3.38.32-2,0-3.9-.45-5.69-1.34-1.79-.89-3-2.56-3.65-4.99v-32.4h14.91v-5.9h-14.91v-12.87h-1.93l-14.37,12.55-7.62,2.57v3.54h7.51l-.32,31.96c-.07,4.58,1.02,8.14,3.27,10.67,2.25,2.54,5.77,3.81,10.57,3.81,4.22,0,7.85-.64,10.89-1.93,3.04-1.29,5.49-2.47,7.35-3.54l-.64-2.9c-.29.07-.95.21-1.98.43Z"/>
        <path class="cls-1" d="M285.76,201.23c-4.22-2.22-9.08-3.32-14.59-3.32-5.22,0-9.98,1.2-14.27,3.59-4.29,2.4-7.69,5.68-10.19,9.87-2.5,4.18-3.75,8.96-3.75,14.32,0,4.58,1.09,8.85,3.27,12.82,2.18,3.97,5.36,7.19,9.55,9.65,4.18,2.47,9.31,3.7,15.39,3.7,5.36,0,10.15-1.2,14.37-3.59,4.22-2.4,7.56-5.7,10.03-9.92,2.47-4.22,3.7-9.05,3.7-14.48,0-5.08-1.2-9.56-3.59-13.46-2.4-3.9-5.7-6.95-9.92-9.17ZM279.37,243.22c-1.47,3.25-3.63,4.88-6.49,4.88-2.57,0-4.77-1.38-6.6-4.13-1.82-2.75-3.24-6.31-4.24-10.67-1-4.36-1.5-9.01-1.5-13.94,0-2.64.25-5.33.75-8.04.5-2.72,1.39-5.01,2.68-6.87,1.29-1.86,3.07-2.79,5.36-2.79,2.43,0,4.56,1.27,6.38,3.81,1.82,2.54,3.25,5.94,4.29,10.19,1.04,4.26,1.56,8.96,1.56,14.11,0,5.72-.73,10.21-2.2,13.46Z"/>
        <path class="cls-1" d="M357.52,198.23l-23.28,4.08v2.25l6.65,3v32.4c-.93.64-1.98,1.2-3.16,1.66-1.18.47-2.52.7-4.02.7-3.08,0-5.22-.86-6.44-2.57-1.22-1.72-1.82-4.04-1.82-6.97v-34.22l-22.96,4.08v2.25l6.22,3v28.32c0,3.93.71,7.04,2.15,9.33,1.43,2.29,3.29,3.92,5.58,4.88,2.29.97,4.72,1.45,7.29,1.45s4.93-.45,7.08-1.34c2.15-.89,4.09-2.02,5.85-3.38,1.75-1.36,3.23-2.64,4.45-3.86l1.18,8.37,21.88-3.32v-2.9l-6.65-1.61v-45.59Z"/>
        <path class="cls-1" d="M417.69,205.09l7.94-2.36v-3.22h-25.32v3.22l8.69,3-18.45,18.23,12.34,19.63c1.72,2.86,3.68,4.93,5.9,6.22,2.22,1.29,5,1.93,8.37,1.93,1.93,0,3.66-.23,5.2-.7,1.54-.47,3.16-1.13,4.88-1.98l-22.85-32.61,13.3-11.37Z"/>
        <polygon class="cls-1" points="389.7 173.34 366.96 180.1 366.96 182.14 373.07 185.89 373.07 245.32 366.74 246.82 366.74 250.36 395.7 250.36 395.7 246.82 389.7 245.32 389.7 173.34"/>
        <path class="cls-1" d="M502.11,209.28l-6.65-2.57c-4.15-1.72-7.15-3.45-9.01-5.2-1.86-1.75-2.79-4.16-2.79-7.24s1.04-5.4,3.11-7.4c2.07-2,4.86-3,8.37-3,2,0,3.66.29,4.99.86,1.32.57,2.41,1.25,3.27,2.04l6.97,15.98h3.22l-.21-18.45c-2.43-1.07-5.19-2.05-8.26-2.95-3.08-.89-6.19-1.34-9.33-1.34-6.01,0-11.05,1.09-15.12,3.27-4.08,2.18-7.13,4.95-9.17,8.31-2.04,3.36-3.06,6.79-3.06,10.3,0,4.65,1.3,8.65,3.92,12.01,2.61,3.36,6.81,6.19,12.6,8.47l6.11,2.36c3.65,1.5,6.22,3.13,7.72,4.88,1.5,1.75,2.25,3.99,2.25,6.7,0,3.36-1.09,6.1-3.27,8.21-2.18,2.11-4.95,3.16-8.31,3.16-2.57,0-4.77-.39-6.6-1.18-1.82-.79-3.38-1.64-4.67-2.57l-8.8-18.02h-3l1.93,21.45c2.72,1.14,5.74,2.18,9.06,3.11,3.33.93,6.99,1.39,10.99,1.39,3.65,0,7.17-.54,10.57-1.61,3.4-1.07,6.47-2.66,9.22-4.77,2.75-2.11,4.93-4.68,6.54-7.72,1.61-3.04,2.41-6.53,2.41-10.46s-1.13-7.36-3.38-10.3c-2.25-2.93-6.13-5.51-11.64-7.72Z"/>
        <path class="cls-1" d="M555.8,243.82c-1.04.21-2.16.32-3.38.32-2,0-3.9-.45-5.69-1.34-1.79-.89-3-2.56-3.65-4.99v-32.4h14.91v-5.9h-14.91v-12.87h-1.93l-14.37,12.55-7.62,2.57v3.54h7.51l-.32,31.96c-.07,4.58,1.02,8.14,3.27,10.67,2.25,2.54,5.77,3.81,10.57,3.81,4.22,0,7.85-.64,10.89-1.93,3.04-1.29,5.49-2.47,7.35-3.54l-.64-2.9c-.29.07-.95.21-1.98.43Z"/>
        <path class="cls-1" d="M614.1,198.23l-23.28,4.08v2.25l6.65,3v32.4c-.93.64-1.98,1.2-3.16,1.66-1.18.47-2.52.7-4.02.7-3.08,0-5.22-.86-6.44-2.57-1.22-1.72-1.82-4.04-1.82-6.97v-34.22l-22.96,4.08v2.25l6.22,3v28.32c0,3.93.71,7.04,2.15,9.33,1.43,2.29,3.29,3.92,5.58,4.88,2.29.97,4.72,1.45,7.29,1.45s4.93-.45,7.08-1.34c2.15-.89,4.09-2.02,5.85-3.38,1.75-1.36,3.23-2.64,4.45-3.86l1.18,8.37,21.88-3.32v-2.9l-6.65-1.61v-45.59Z"/>
        <path class="cls-1" d="M676.63,173.34l-24.89,5.79v1.72l8.15,3.97v14.27c-1.93-.21-3.43-.32-4.5-.32-5.58,0-10.75,1.18-15.5,3.54-4.76,2.36-8.56,5.67-11.42,9.92-2.86,4.26-4.29,9.24-4.29,14.96,0,4.79.91,9.05,2.74,12.76,1.82,3.72,4.33,6.63,7.51,8.74,3.18,2.11,6.81,3.16,10.89,3.16,3.43,0,6.44-.72,9.01-2.15,2.57-1.43,4.65-3,6.22-4.72l1.29,6.65,20.7-3.43v-2.9l-5.9-1.5v-70.47ZM659.9,241.88c-1.43,1.07-3.08,1.61-4.93,1.61-2.65,0-5.04-1-7.19-3-2.15-2-3.84-4.74-5.1-8.21-1.25-3.47-1.88-7.38-1.88-11.74s.5-7.87,1.5-10.51c1-2.64,2.29-4.56,3.86-5.74,1.57-1.18,3.22-1.77,4.93-1.77,2.07,0,3.79.54,5.15,1.61,1.36,1.07,2.57,2.54,3.65,4.4v33.36Z"/>
        <path class="cls-1" d="M702.06,190.61c2.36,0,4.38-.82,6.06-2.47,1.68-1.64,2.52-3.65,2.52-6.01s-.84-4.38-2.52-6.06c-1.68-1.68-3.7-2.52-6.06-2.52s-4.36.84-6.01,2.52c-1.65,1.68-2.47,3.7-2.47,6.06s.82,4.36,2.47,6.01c1.64,1.65,3.65,2.47,6.01,2.47Z"/>
        <polygon class="cls-1" points="710.32 197.91 687.15 203.16 687.15 205.09 693.58 209.7 693.58 245.32 686.93 246.82 686.93 250.36 716.97 250.36 716.97 246.82 710.32 245.32 710.32 197.91"/>
        <path class="cls-1" d="M773.01,210.4c-2.4-3.9-5.7-6.95-9.92-9.17-4.22-2.22-9.08-3.32-14.59-3.32-5.22,0-9.98,1.2-14.27,3.59-4.29,2.4-7.69,5.68-10.19,9.87-2.5,4.18-3.75,8.96-3.75,14.32,0,4.58,1.09,8.85,3.27,12.82,2.18,3.97,5.36,7.19,9.55,9.65,4.18,2.47,9.31,3.7,15.39,3.7,5.36,0,10.15-1.2,14.37-3.59,4.22-2.4,7.56-5.7,10.03-9.92,2.47-4.22,3.7-9.05,3.7-14.48,0-5.08-1.2-9.56-3.59-13.46ZM756.71,243.22c-1.47,3.25-3.63,4.88-6.49,4.88-2.57,0-4.77-1.38-6.6-4.13-1.82-2.75-3.24-6.31-4.24-10.67-1-4.36-1.5-9.01-1.5-13.94,0-2.64.25-5.33.75-8.04.5-2.72,1.39-5.01,2.68-6.87,1.29-1.86,3.07-2.79,5.36-2.79,2.43,0,4.56,1.27,6.38,3.81,1.82,2.54,3.25,5.94,4.29,10.19,1.04,4.26,1.56,8.96,1.56,14.11,0,5.72-.73,10.21-2.2,13.46Z"/>
      </g>
      <g>
        <rect class="cls-1" x="1045.67" y="144.39" width="88.39" height="88.39" transform="translate(185.87 825.88) rotate(-45)"/>
        <polygon class="cls-1" points="1027.06 188.58 964.56 126.08 902.06 188.58 902.54 189.07 901.91 189.07 901.91 251.08 964.56 251.08 964.56 251.08 964.56 251.08 1027.21 251.08 1027.21 189.07 1026.58 189.07 1027.06 188.58"/>
        <rect class="cls-1" x="920.36" y="19.08" width="88.39" height="88.39" transform="translate(237.77 700.58) rotate(-45)"/>
        <polygon class="cls-1" points="1090.69 1.6 1089.86 .78 1089.04 1.6 1027.21 1.6 1027.21 63.62 1027.7 63.62 1089.86 125.78 1152.03 63.62 1152.51 63.62 1152.51 1.6 1090.69 1.6"/>
      </g>
    </g>
  </g>
</svg>