<?xml version="1.0" encoding="UTF-8"?>
<svg id="Layer_2" data-name="Layer 2" xmlns="http://www.w3.org/2000/svg" viewBox="0 0 564.39 564.86">
  <defs>
    <style>
      .cls-1 {
        fill: #0029d6;
      }
    </style>
  </defs>
  <g id="Layer_1-2" data-name="Layer 1">
    <g>
      <g>
        <polygon points="86.81 379.76 101.75 394.27 118.42 377.6 101.75 360.71 86.81 375.43 72.31 360.71 55.2 377.6 72.31 394.27 86.81 379.76"/>
        <path d="M107.38,413.64c-5.63-5.41-11.76-8.12-18.4-8.12-4.76,0-9.28,1.55-13.53,4.66-4.26,3.1-8.08,7.25-11.47,12.45-3.39,5.2-6.06,11.04-8.01,17.54-1.95,6.5-2.92,13.21-2.92,20.13,0,10.25,2.71,18.22,8.12,23.92,5.41,5.7,12.88,8.55,22.41,8.55,7.21,0,14-1.59,20.35-4.76l8.66-28.36c4.04,8.08,6.06,17.18,6.06,27.28,0,2.46-.07,4.76-.22,6.93-7.22,4.48-16.45,8.05-27.71,10.72-11.26,2.67-22.73,4.01-34.42,4.01-15.59,0-27.06-2.78-34.42-8.33-7.36-5.56-11.04-13.82-11.04-24.79,0-7.22,1.15-15.23,3.46-24.03l-5.41-1.52c-5.92,16.6-8.88,31.68-8.88,45.25,0,9.96,1.91,18.73,5.74,26.3,3.82,7.58,9.74,13.49,17.75,17.75,8.01,4.26,18.29,6.39,30.85,6.39,8.08,0,16.16-.83,24.25-2.49,8.08-1.66,15.73-4.11,22.95-7.36,7.21-3.25,13.42-7.18,18.62-11.8,2.02-8.95,3.57-17.93,4.65-26.95,1.08-9.02,1.62-17.5,1.62-25.44,0-13.56-1.77-25.25-5.3-35.07-3.54-9.81-8.12-17.43-13.75-22.84ZM98.18,457.59c-4.69.51-9.42.76-14.18.76-7.36,0-13.03-.54-16.99-1.62-3.97-1.08-5.95-2.92-5.95-5.52,0-3.32,1.91-6.24,5.74-8.77,3.82-2.52,8.33-3.79,13.53-3.79,6.35,0,12.05,1.51,17.1,4.55,5.05,3.03,9.23,7.07,12.56,12.12-3.18,1.01-7.11,1.77-11.8,2.27Z"/>
        <polygon points="343.57 415.05 358.51 429.55 375.18 412.88 358.51 396 343.57 410.72 329.06 396 311.96 412.88 329.06 429.55 343.57 415.05"/>
        <polygon points="540.36 373.05 499.01 394.27 499.01 406.17 540.36 384.96 540.36 373.05"/>
        <path d="M548.26,426.2c-4.84-3.82-10.14-5.74-15.91-5.74-5.2,0-9.74,1.77-13.64,5.3-3.9,3.54-8.16,9.92-12.77,19.16l-5.41,11.04c-2.6,5.34-5.16,9.56-7.69,12.66-2.53,3.11-5.45,5.27-8.77,6.5-3.32,1.23-7.72,1.84-13.21,1.84-8.52,0-15.37-.14-20.57-.43,3.61-4.62,6.39-9.56,8.33-14.83,1.95-5.27,2.92-10.72,2.92-16.35,0-10.39-3.03-18.22-9.09-23.49-6.06-5.27-15.52-7.9-28.36-7.9-5.2,0-10.72.47-16.56,1.41-5.84.94-12.01,2.56-18.51,4.87l-13.21,34.86c3.75.87,6.82,2.24,9.2,4.11,2.38,1.88,5.52,5.12,9.42,9.74l6.49,7.14c-8.81.58-18.62.87-29.44.87-6.35,0-11.33-.5-14.94-1.52-3.61-1.01-6.14-3.03-7.58-6.06-1.44-3.03-2.16-7.43-2.16-13.21v-15.37h-5.84l-6.93,31.39c-6.21,3.18-14,4.76-23.38,4.76h0s0,0,0,0h-100.88c-.29-10.25-1.95-19.34-4.98-27.28-3.03-7.94-7-14.18-11.91-18.73-4.91-4.55-10.32-6.82-16.24-6.82-4.76,0-9.28,1.55-13.53,4.65-4.26,3.11-8.05,7.25-11.37,12.45-3.32,5.2-5.95,11.04-7.9,17.54-1.95,6.49-2.92,13.21-2.92,20.13,0,10.25,2.81,18.22,8.44,23.92,5.63,5.7,14.36,8.55,26.19,8.55h20.57c-4.48,5.34-12.09,9.99-22.84,13.96-10.75,3.97-25.87,7.97-45.35,12.01v5.85l43.3,21.65c8.66-8.52,15.8-17.21,21.43-26.09,5.63-8.88,9.81-18.01,12.56-27.39h99.81c9.28-.05,17-2.42,23.16-7.14l4.76-21.65h.65c1.01,9.38,4.18,16.53,9.53,21.43,5.34,4.91,12.84,7.36,22.51,7.36,10.68,0,20.89-1.12,30.63-3.36,9.74-2.24,18.65-5.45,26.74-9.63,6.06,4.62,12.45,7.94,19.16,9.96,6.71,2.02,14.32,3.03,22.84,3.03,6.35,0,11.76-1.59,16.24-4.76,4.47-3.17,8.44-8.3,11.91-15.37,9.23,5.05,18.58,9.13,28.04,12.23,9.45,3.1,17.71,5.16,24.79,6.17,5.92-7.5,10.46-15.33,13.64-23.49,3.17-8.15,4.76-15.98,4.76-23.49s-1.48-14.86-4.44-21.22c-2.96-6.35-6.86-11.44-11.69-15.26ZM171.68,476.97c-7.22,0-12.85-.54-16.89-1.62-4.04-1.08-6.06-2.92-6.06-5.52,0-3.32,1.91-6.24,5.74-8.77,3.82-2.52,8.33-3.79,13.53-3.79,5.92,0,11.58,1.88,16.99,5.63,5.41,3.76,9.63,8.44,12.66,14.07h-25.98ZM428.22,472.42c-1.01-.57-1.95-1.3-2.82-2.16l-10.39-11.26c-4.76-5.2-8.3-8.15-10.61-8.88v-.87c3.9-.87,7.5-1.44,10.82-1.73,3.32-.29,6.49-.43,9.53-.43,9.38,0,16.16.72,20.35,2.16,4.18,1.44,6.28,3.75,6.28,6.93,0,7.36-7.72,12.77-23.16,16.24ZM531.59,471.01c-9.31-2.81-18.15-6.17-26.52-10.07,3.75-6.06,8.58-9.09,14.5-9.09,4.62,0,9.53,1.3,14.72,3.9,5.2,2.6,9.88,5.88,14.07,9.85,4.18,3.97,7.07,7.9,8.66,11.8-7.65-1.44-16.13-3.57-25.44-6.39Z"/>
      </g>
      <g>
        <rect class="cls-1" x="303.48" y="165.6" width="101.93" height="101.93" transform="translate(-49.32 314.06) rotate(-45)"/>
        <polygon class="cls-1" points="282.02 216.56 209.95 144.49 137.88 216.56 138.44 217.12 137.7 217.12 137.7 288.64 209.95 288.64 209.95 288.64 209.95 288.64 282.19 288.64 282.19 217.12 281.46 217.12 282.02 216.56"/>
        <rect class="cls-1" x="158.99" y="21.11" width="101.93" height="101.93" transform="translate(10.53 169.57) rotate(-45)"/>
        <polygon class="cls-1" points="355.39 .95 354.44 0 353.49 .95 282.19 .95 282.19 72.46 282.75 72.46 354.44 144.15 426.12 72.46 426.68 72.46 426.68 .95 355.39 .95"/>
      </g>
    </g>
  </g>
</svg>